0
SECTION
2
HEADER
9
$INSUNITS
70
4
9
$ACADVER
1
AC1014
9
$HANDSEED
5
FFFF
0
ENDSEC
0
SECTION
2
TABLES
0
TABLE
2
VPORT
5
8
100
AcDbSymbolTable
0
ENDTAB
0
TABLE
2
LTYPE
5
5
100
AcDbSymbolTable
0
LTYPE
5
14
100
AcDbSymbolTableRecord
100
AcDbLinetypeTableRecord
2
BYBLOCK
70
0
0
LTYPE
5
15
100
AcDbSymbolTableRecord
100
AcDbLinetypeTableRecord
2
BYLAYER
70
0
0
ENDTAB
0
TABLE
2
LAYER
5
2
100
AcDbSymbolTable
70
2
0
LAYER
5
50
100
AcDbSymbolTableRecord
100
AcDbLayerTableRecord
2
0
70
0
6
CONTINUOUS
0
ENDTAB
0
TABLE
2
STYLE
5
3
100
AcDbSymbolTable
70
1
0
STYLE
5
11
100
AcDbSymbolTableRecord
100
AcDbTextStyleTableRecord
2
STANDARD
70
0
0
ENDTAB
0
TABLE
2
VIEW
5
6
100
AcDbSymbolTable
70
0
0
ENDTAB
0
TABLE
2
UCS
5
7
100
AcDbSymbolTable
70
0
0
ENDTAB
0
TABLE
2
APPID
5
9
100
AcDbSymbolTable
70
2
0
APPID
5
12
100
AcDbSymbolTableRecord
100
AcDbRegAppTableRecord
2
ACAD
70
0
0
ENDTAB
0
TABLE
2
DIMSTYLE
5
A
100
AcDbSymbolTable
70
1
0
ENDTAB
0
TABLE
2
BLOCK_RECORD
5
1
100
AcDbSymbolTable
70
1
0
BLOCK_RECORD
5
1F
100
AcDbSymbolTableRecord
100
AcDbBlockTableRecord
2
*MODEL_SPACE
0
BLOCK_RECORD
5
1B
100
AcDbSymbolTableRecord
100
AcDbBlockTableRecord
2
*PAPER_SPACE
0
ENDTAB
0
ENDSEC
0
SECTION
2
BLOCKS
0
BLOCK
5
20
100
AcDbEntity
100
AcDbBlockBegin
2
*MODEL_SPACE
0
ENDBLK
5
21
100
AcDbEntity
100
AcDbBlockEnd
0
BLOCK
5
1C
100
AcDbEntity
100
AcDbBlockBegin
2
*PAPER_SPACE
0
ENDBLK
5
1D
100
AcDbEntity
100
AcDbBlockEnd
0
ENDSEC
0
SECTION
2
ENTITIES
0
CIRCLE
5
100
100
AcDbEntity
8
0
100
AcDbCircle
10
-57.000000849366188
20
34.000000506639481
30
0
40
1.5000000000000036
210
0
220
-0
230
1
0
CIRCLE
5
101
100
AcDbEntity
8
0
100
AcDbCircle
10
-57.000000849366188
20
34.000000506639481
30
0
40
3.0000000000000071
210
0
220
0
230
1
0
CIRCLE
5
102
100
AcDbEntity
8
0
100
AcDbCircle
10
-66.000000983476639
20
14.000000208616257
30
0
40
2.9999999999999982
210
0
220
0
230
1
0
CIRCLE
5
103
100
AcDbEntity
8
0
100
AcDbCircle
10
-66.000000983476639
20
14.000000208616257
30
0
40
1.4999999999999947
210
0
220
-0
230
1
0
CIRCLE
5
104
100
AcDbEntity
8
0
100
AcDbCircle
10
-12.000000178813934
20
33.000000491738319
30
0
40
3.0000000000000004
210
0
220
0
230
1
0
CIRCLE
5
105
100
AcDbEntity
8
0
100
AcDbCircle
10
-12.000000178813934
20
33.000000491738319
30
0
40
1.4999999999999991
210
0
220
-0
230
1
0
LWPOLYLINE
5
106
100
AcDbEntity
8
0
100
AcDbPolyline
90
4
70
1
43
0.0
10
-7.6081011552243467
20
72.932416147469581
42
-0.99999999999999989
10
-7.6081011552243734
20
68.932416087864951
10
-12.391772341153608
20
68.932416087864993
42
-0.99999999999999989
10
-12.391772341153599
20
72.932416147469553
0
LWPOLYLINE
5
107
100
AcDbEntity
8
0
100
AcDbPolyline
90
4
70
1
43
0.0
10
-12.391772341153606
20
66.632416087864982
42
-0.99999999999999989
10
-12.391772341153597
20
75.23241614746955
10
-7.6081011552243352
20
75.232416147469593
42
-0.99999999999999989
10
-7.6081011552243902
20
66.632416087864954
0
CIRCLE
5
108
100
AcDbEntity
8
0
100
AcDbCircle
10
-2.260517318281094
20
2.2605173182810958
30
0
40
1.5000000000000002
210
0
220
-0
230
1
0
LWPOLYLINE
5
109
100
AcDbEntity
8
0
100
AcDbPolyline
90
22
70
1
43
0.0
10
1.8318679906315083e-14
20
70.13405496659648
10
1.1102230246251565e-15
20
9.0409450334034922
42
-0.34243199548439257
10
-3.0060098961606241
20
5.1664149104764068
42
0.27367577520264913
10
-5.1664149104789718
20
3.0060098961606267
42
-0.34243199548445197
10
-9.0409450334094821
20
-3.3106850594322168e-12
10
-103.4840549665964
20
1.1102230246251565e-14
42
-0.34243199548439257
10
-107.35858508952349
20
3.0060098961606299
42
0.27367577520259251
10
-109.51899010383927
20
5.1664149104765134
42
-0.3424319954843939
10
-112.52499999999984
20
9.0409450334035046
10
-112.52499999999995
20
70.13405496659648
42
-0.34243199548439279
10
-109.51899010383931
20
74.008585089523564
42
0.27367577520258879
10
-107.35858508952356
20
76.168990103839349
42
-0.34243199548439235
10
-103.48405496659646
20
79.174999999999969
10
-63.89092712474617
20
79.174999999999969
42
0.31783724519578888
10
-62.948118083164104
20
79.84166666666664
42
-0.31783724519578183
10
-61.062499999999972
20
81.174999999999983
10
-51.462500074505769
20
81.174999999999955
42
-0.31783724519578105
10
-49.576881991341665
20
79.84166666666664
42
0.31783724519578888
10
-48.634072949759599
20
79.174999999999969
10
-9.0409450334034798
20
79.174999999999955
42
-0.34243199548439224
10
-5.1664149104763908
20
76.168990103839349
42
0.27367577520259312
10
-3.0060098961606094
20
74.008585089523578
42
-0.34243199548439218
0
LWPOLYLINE
5
110
100
AcDbEntity
8
0
100
AcDbPolyline
90
8
70
1
43
0.0
10
-57.999999999999964
20
20.599999999999987
10
-44.999999999999972
20
20.599999999999994
42
-0.41421356237310253
10
-44.299999999999969
20
19.899999999999991
10
-44.299999999999962
20
6.9000000000000039
42
-0.41421356237310064
10
-44.999999999999972
20
6.2000000000000011
10
-57.999999999999964
20
6.2000000000000197
42
-0.41421356237308715
10
-58.699999999999946
20
6.9000000000000039
10
-58.69999999999996
20
19.899999999999991
42
-0.41421356237308948
0
LWPOLYLINE
5
111
100
AcDbEntity
8
0
100
AcDbPolyline
90
8
70
1
43
0.0
10
-38.949999999999967
20
39.649999999999977
10
-25.949999999999982
20
39.64999999999997
42
-0.41421356237309503
10
-25.249999999999989
20
38.949999999999974
10
-25.249999999999989
20
25.949999999999982
42
-0.41421356237309503
10
-25.949999999999982
20
25.249999999999989
10
-38.949999999999967
20
25.249999999999972
42
-0.41421356237309132
10
-39.649999999999977
20
25.949999999999982
10
-39.64999999999997
20
38.949999999999974
42
-0.41421356237309503
0
LWPOLYLINE
5
112
100
AcDbEntity
8
0
100
AcDbPolyline
90
16
70
1
43
0.0
10
-7.3999999999999968
20
22.399999999999984
42
-0.41421356237309559
10
-4.399999999999995
20
19.399999999999984
10
-4.3999999999999968
20
7.399999999999995
42
-0.41421356237309481
10
-7.4000000000000021
20
4.3999999999999968
10
-57.499999999999943
20
4.3999999999999932
42
-0.41421356237309581
10
-60.499999999999943
20
7.3999999999999977
10
-60.499999999999943
20
19.399999999999974
42
-0.41421356237309354
10
-57.499999999999943
20
22.399999999999977
10
-44.449999999999989
20
22.399999999999977
42
0.41421356237309592
10
-41.449999999999974
20
25.399999999999974
10
-41.449999999999974
20
38.449999999999982
42
-0.41421356237309337
10
-38.449999999999982
20
41.449999999999974
10
-26.449999999999996
20
41.449999999999996
42
-0.41421356237309592
10
-23.449999999999971
20
38.449999999999982
10
-23.449999999999989
20
25.399999999999988
42
0.41421356237309548
10
-20.449999999999989
20
22.399999999999984
0
LWPOLYLINE
5
113
100
AcDbEntity
8
0
100
AcDbPolyline
90
8
70
1
43
0.0
10
-19.899999999999991
20
20.599999999999987
10
-6.9000000000000039
20
20.600000000000001
42
-0.41421356237309276
10
-6.1999999999999975
20
19.899999999999991
10
-6.1999999999999975
20
6.9000000000000039
42
-0.41421356237309503
10
-6.9000000000000039
20
6.1999999999999975
10
-19.899999999999991
20
6.1999999999999975
42
-0.41421356237309276
10
-20.600000000000001
20
6.9000000000000039
10
-20.599999999999987
20
19.899999999999991
42
-0.4142135623730932
0
LWPOLYLINE
5
114
100
AcDbEntity
8
0
100
AcDbPolyline
90
8
70
1
43
0.0
10
-38.949999999999967
20
20.599999999999987
10
-25.949999999999982
20
20.600000000000001
42
-0.41421356237309132
10
-25.249999999999972
20
19.899999999999991
10
-25.249999999999968
20
6.9000000000000039
42
-0.41421356237309365
10
-25.949999999999982
20
6.1999999999999975
10
-38.949999999999967
20
6.2000000000000002
42
-0.41421356237309365
10
-39.649999999999977
20
6.9000000000000039
10
-39.649999999999963
20
19.899999999999991
42
-0.41421356237309415
0
LWPOLYLINE
5
115
100
AcDbEntity
8
0
100
AcDbPolyline
90
8
70
1
43
0.0
10
-105.62499999999993
20
20.599999999999987
10
-92.624999999999915
20
20.599999999999952
42
-0.41421356237310714
10
-91.924999999999955
20
19.899999999999991
10
-91.924999999999926
20
6.9000000000000039
42
-0.41421356237308249
10
-92.624999999999915
20
6.2000000000000028
10
-105.62499999999993
20
6.2000000000000419
42
-0.41421356237310758
10
-106.3249999999999
20
6.9000000000000039
10
-106.32499999999992
20
19.899999999999991
42
-0.41421356237309875
0
LWPOLYLINE
5
116
100
AcDbEntity
8
0
100
AcDbPolyline
90
8
70
1
43
0.0
10
-86.57499999999996
20
39.649999999999977
10
-73.57499999999996
20
39.649999999999977
42
-0.41421356237310253
10
-72.874999999999957
20
38.949999999999974
10
-72.874999999999972
20
25.949999999999982
42
-0.41421356237308948
10
-73.57499999999996
20
25.249999999999993
10
-86.57499999999996
20
25.250000000000018
42
-0.41421356237310802
10
-87.27499999999992
20
25.949999999999982
10
-87.274999999999977
20
38.949999999999974
42
-0.41421356237308948
0
LWPOLYLINE
5
117
100
AcDbEntity
8
0
100
AcDbPolyline
90
8
70
1
43
0.0
10
-105.12499999999987
20
4.3999999999999968
10
-74.074999999999932
20
4.3999999999999968
42
0.41421356237309659
10
-71.074999999999946
20
7.3999999999999888
10
-71.074999999999946
20
38.449999999999996
42
0.41421356237309548
10
-74.074999999999932
20
41.449999999999974
10
-105.12499999999987
20
41.449999999999974
42
0.41421356237309159
10
-108.12499999999989
20
38.449999999999953
10
-108.12499999999989
20
7.4000000000000181
42
0.41421356237309209
0
LWPOLYLINE
5
118
100
AcDbEntity
8
0
100
AcDbPolyline
90
8
70
1
43
0.0
10
-105.62499999999993
20
39.649999999999977
10
-92.624999999999915
20
39.649999999999942
42
-0.41421356237310802
10
-91.924999999999955
20
38.949999999999974
10
-91.92499999999994
20
25.949999999999982
42
-0.41421356237309875
10
-92.624999999999915
20
25.249999999999989
10
-105.62499999999993
20
25.250000000000018
42
-0.41421356237310802
10
-106.3249999999999
20
25.949999999999982
10
-106.32499999999995
20
38.949999999999974
42
-0.41421356237308948
0
LWPOLYLINE
5
119
100
AcDbEntity
8
0
100
AcDbPolyline
90
8
70
1
43
0.0
10
-86.57499999999996
20
20.599999999999987
10
-73.57499999999996
20
20.599999999999994
42
-0.41421356237310253
10
-72.874999999999957
20
19.899999999999991
10
-72.874999999999943
20
6.9000000000000039
42
-0.41421356237310064
10
-73.57499999999996
20
6.2000000000000011
10
-86.57499999999996
20
6.2000000000000419
42
-0.41421356237310758
10
-87.27499999999992
20
6.9000000000000039
10
-87.274999999999935
20
19.899999999999991
42
-0.41421356237309875
0
LWPOLYLINE
5
120
100
AcDbEntity
8
0
100
AcDbPolyline
90
8
70
1
43
0.0
10
-108.83999999999993
20
72.489999999999966
42
-0.41421356237309853
10
-105.83999999999992
20
75.489999999999981
10
-73.359999999999957
20
75.489999999999981
42
-0.41421356237309337
10
-70.359999999999957
20
72.489999999999981
10
-70.359999999999957
20
50.849999999999973
42
-0.4142135623730942
10
-73.359999999999957
20
47.84999999999998
10
-105.83999999999992
20
47.84999999999998
42
-0.41421356237309337
10
-108.83999999999993
20
50.849999999999973
0
LINE
5
121
100
AcDbEntity
8
0
100
AcDbLine
10
-74.159999999999968
20
58.277834620191989
30
0
11
-74.159999999999968
21
69.489999999999981
31
0
0
SPLINE
5
122
100
AcDbEntity
8
0
100
AcDbSpline
70
4
71
3
72
10
73
6
74
0
42
0.000000001
43
0.0000000001
44
0.0000000001
40
1.5568798964896244
40
1.5568798964896244
40
1.5568798964896244
40
1.5568798964896244
40
1.5638381116422604
40
1.5638381116422604
40
1.5707963267948966
40
1.5707963267948966
40
1.5707963267948966
40
1.5707963267948966
41
1
41
1
41
1
41
1
41
1
41
1
10
-74.1602126552404
20
69.520561255426003
30
0
10
-74.160141771286462
20
69.515468039970216
30
0
10
-74.160088607265195
20
69.510374579180279
30
0
10
-74.160017721621955
20
69.500187412260019
30
0
10
-74.159999999999968
20
69.495093706130106
30
0
10
-74.159999999999968
20
69.489999999999981
30
0
0
SPLINE
5
123
100
AcDbEntity
8
0
100
AcDbSpline
70
4
71
3
72
15
73
11
74
0
42
0.000000001
43
0.0000000001
44
0.0000000001
40
-6.9388939039072284e-17
40
-6.9388939039072284e-17
40
-6.9388939039072284e-17
40
-6.9388939039072284e-17
40
0.48826553076069656
40
0.48826553076069656
40
0.78539816339744828
40
0.78539816339744828
40
0.78539816339744828
40
1.0825307960341999
40
1.0825307960341999
40
1.5568798964896222
40
1.5568798964896222
40
1.5568798964896222
40
1.5568798964896222
41
1
41
1
41
1
41
1
41
1
41
1
41
1
41
1
41
1
41
1
41
1
10
-76.359999999999971
20
71.688053613748295
30
0
10
-76.001618713114667
20
71.688053613748295
30
0
10
-75.643590056556107
20
71.598842186173655
30
0
10
-75.134781778368009
20
71.328582424677208
30
0
10
-74.957682573048103
20
71.197579472226252
30
0
10
-74.803675263946758
20
71.043572163124907
30
0
10
-74.649667954845413
20
70.889564854023547
30
0
10
-74.518790241507048
20
70.712594975455175
30
0
10
-74.253713563831397
20
70.213544701714227
30
0
10
-74.165044677540294
20
69.867755920681873
30
0
10
-74.1602126552404
20
69.520561255426003
30
0
0
LINE
5
124
100
AcDbEntity
8
0
100
AcDbLine
10
-76.359999999999971
20
71.688053613748295
30
0
11
-102.83999999999995
21
71.688053613748295
31
0
0
SPLINE
5
125
100
AcDbEntity
8
0
100
AcDbSpline
70
4
71
3
72
15
73
11
74
0
42
0.000000001
43
0.0000000001
44
0.0000000001
40
-1.556879896489622
40
-1.556879896489622
40
-1.556879896489622
40
-1.556879896489622
40
-1.0825307960341988
40
-1.0825307960341988
40
-0.78539816339744606
40
-0.78539816339744606
40
-0.78539816339744606
40
-0.48826553076069268
40
-0.48826553076069268
40
6.9388939039072284e-17
40
6.9388939039072284e-17
40
6.9388939039072284e-17
40
6.9388939039072284e-17
41
1
41
1
41
1
41
1
41
1
41
1
41
1
41
1
41
1
41
1
41
1
10
-105.0397873447595
20
69.520561255426003
30
0
10
-105.03495532245961
20
69.867755920681873
30
0
10
-104.94628643616855
20
70.213544701714213
30
0
10
-104.68120975849288
20
70.712594975455161
30
0
10
-104.55033204515452
20
70.889564854023547
30
0
10
-104.39632473605316
20
71.043572163124907
30
0
10
-104.24231742695181
20
71.197579472226252
30
0
10
-104.06521822163191
20
71.328582424677208
30
0
10
-103.55640994344382
20
71.598842186173655
30
0
10
-103.19838128688525
20
71.688053613748281
30
0
10
-102.83999999999995
20
71.688053613748281
30
0
0
SPLINE
5
126
100
AcDbEntity
8
0
100
AcDbSpline
70
4
71
3
72
10
73
6
74
0
42
0.000000001
43
0.0000000001
44
0.0000000001
40
-1.5707963267948926
40
-1.5707963267948926
40
-1.5707963267948926
40
-1.5707963267948926
40
-1.5638381116422586
40
-1.5638381116422586
40
-1.5568798964896244
40
-1.5568798964896244
40
-1.5568798964896244
40
-1.5568798964896244
41
1
41
1
41
1
41
1
41
1
41
1
10
-105.03999999999994
20
69.489999999999981
30
0
10
-105.03999999999994
20
69.495093706130106
30
0
10
-105.03998227837798
20
69.500187412260033
30
0
10
-105.03991139273474
20
69.510374579180279
30
0
10
-105.03985822871344
20
69.515468039970202
30
0
10
-105.0397873447595
20
69.520561255425989
30
0
0
LINE
5
127
100
AcDbEntity
8
0
100
AcDbLine
10
-105.03999999999994
20
69.489999999999981
30
0
11
-105.03999999999994
21
58.277834620191989
31
0
0
LINE
5
128
100
AcDbEntity
8
0
100
AcDbLine
10
-105.03999999999994
20
58.249999999999972
30
0
11
-105.03999999999994
21
58.277834620191989
31
0
0
SPLINE
5
129
100
AcDbEntity
8
0
100
AcDbSpline
70
4
71
3
72
15
73
11
74
0
42
0.000000001
43
0.0000000001
44
0.0000000001
40
0
40
0
40
0
40
0
40
0.48538381720842011
40
0.48538381720842011
40
0.78539816339744828
40
0.78539816339744828
40
0.78539816339744828
40
1.0854125095864764
40
1.0854125095864764
40
1.5707963267948966
40
1.5707963267948966
40
1.5707963267948966
40
1.5707963267948966
41
1
41
1
41
1
41
1
41
1
41
1
41
1
41
1
41
1
41
1
41
1
10
-102.83999999999995
20
56.051946386251657
30
0
10
-103.19626614226365
20
56.051946386251657
30
0
10
-103.55218987269637
20
56.14008842969006
30
0
10
-104.06177811486808
20
56.408882554333182
30
0
10
-104.2408238012068
20
56.540926902028701
30
0
10
-104.39632473605316
20
56.69642783687506
30
0
10
-104.55182567089952
20
56.851928771721411
30
0
10
-104.68374229239429
20
57.030842445323202
30
0
10
-104.95213371903888
20
57.539667240133596
30
0
10
-105.03999999999994
20
57.894678632243725
30
0
10
-105.03999999999994
20
58.249999999999972
30
0
0
LINE
5
130
100
AcDbEntity
8
0
100
AcDbLine
10
-102.83999999999995
20
56.051946386251657
30
0
11
-76.359999999999957
21
56.051946386251657
31
0
0
SPLINE
5
131
100
AcDbEntity
8
0
100
AcDbSpline
70
4
71
3
72
15
73
11
74
0
42
0.000000001
43
0.0000000001
44
0.0000000001
40
-1.5707963267948966
40
-1.5707963267948966
40
-1.5707963267948966
40
-1.5707963267948966
40
-1.0854125095864764
40
-1.0854125095864764
40
-0.78539816339744828
40
-0.78539816339744828
40
-0.78539816339744828
40
-0.48538381720842011
40
-0.48538381720842011
40
0
40
0
40
0
40
0
41
1
41
1
41
1
41
1
41
1
41
1
41
1
41
1
41
1
41
1
41
1
10
-74.159999999999954
20
58.249999999999972
30
0
10
-74.159999999999954
20
57.894678632243725
30
0
10
-74.24786628096102
20
57.539667240133596
30
0
10
-74.516257707605604
20
57.030842445323202
30
0
10
-74.648174329100399
20
56.851928771721411
30
0
10
-74.803675263946744
20
56.69642783687506
30
0
10
-74.959176198793102
20
56.540926902028701
30
0
10
-75.13822188513187
20
56.408882554333182
30
0
10
-75.647810127303558
20
56.140088429690067
30
0
10
-76.00373385773625
20
56.051946386251657
30
0
10
-76.359999999999957
20
56.051946386251657
30
0
0
LINE
5
132
100
AcDbEntity
8
0
100
AcDbLine
10
-74.159999999999968
20
58.277834620191989
30
0
11
-74.159999999999954
21
58.249999999999972
31
0
0
LINE
5
133
100
AcDbEntity
8
0
100
AcDbLine
10
-61.062499999999972
20
82.774999999999963
30
0
11
-59.062499999999972
21
82.774999999999963
31
0
0
LINE
5
134
100
AcDbEntity
8
0
100
AcDbLine
10
-59.062499999999972
20
82.774999999999963
30
0
11
-59.062499999999972
21
81.174999999999983
31
0
0
LINE
5
135
100
AcDbEntity
8
0
100
AcDbLine
10
-61.062499999999972
20
81.174999999999955
30
0
11
-59.062499999999972
21
81.174999999999983
31
0
0
LINE
5
136
100
AcDbEntity
8
0
100
AcDbLine
10
-61.062499999999972
20
81.174999999999955
30
0
11
-59.062499999999972
21
81.174999999999983
31
0
0
LINE
5
137
100
AcDbEntity
8
0
100
AcDbLine
10
-59.062499999999972
20
81.174999999999983
30
0
11
-59.062499999999972
21
82.774999999999963
31
0
0
LWPOLYLINE
5
138
100
AcDbEntity
8
0
100
AcDbPolyline
90
4
70
1
43
0.0
10
-53.462499999999977
20
82.774999999999949
10
-59.062499999999972
20
82.774999999999963
10
-59.062499999999972
20
81.174999999999983
10
-53.462499999999977
20
81.174999999999955
0
LINE
5
139
100
AcDbEntity
8
0
100
AcDbLine
10
-53.462499999999977
20
82.774999999999949
30
0
11
-51.462499999999977
21
82.774999999999949
31
0
0
LINE
5
140
100
AcDbEntity
8
0
100
AcDbLine
10
-53.462499999999977
20
82.774999999999949
30
0
11
-53.462499999999977
21
81.174999999999955
31
0
0
LINE
5
141
100
AcDbEntity
8
0
100
AcDbLine
10
-53.462499999999977
20
81.174999999999955
30
0
11
-51.462499999999977
21
81.174999999999955
31
0
0
LINE
5
142
100
AcDbEntity
8
0
100
AcDbLine
10
-53.462499999999977
20
81.174999999999955
30
0
11
-51.462499999999977
21
81.174999999999955
31
0
0
LINE
5
143
100
AcDbEntity
8
0
100
AcDbLine
10
-53.462499999999977
20
81.174999999999955
30
0
11
-53.462499999999977
21
82.774999999999949
31
0
0
ENDSEC
0
SECTION
2
OBJECTS
0
DICTIONARY
5
C
100
AcDbDictionary
3
ACAD_GROUP
350
D
3
ACAD_MLINESTYLE
350
17
0
DICTIONARY
5
D
100
AcDbDictionary
0
DICTIONARY
5
1A
330
C
100
AcDbDictionary
0
DICTIONARY
5
17
100
AcDbDictionary
0
ENDSEC
0
EOF
