%TF.GenerationSoftware,KiCad,Pcbnew,(6.0.8)*%
%TF.CreationDate,2022-10-08T09:35:05+11:00*%
%TF.ProjectId,KEEBPAD-MK,4b454542-5041-4442-9d4d-4b2e6b696361,1.0.0*%
%TF.SameCoordinates,PX8f0d180PY8f0d180*%
%TF.FileFunction,OtherDrawing,Comment*%
%FSLAX46Y46*%
G04 Gerber Fmt 4.6, Leading zero omitted, Abs format (unit mm)*
G04 Created by KiCad (PCBNEW (6.0.8)) date 2022-10-08 09:35:05*
%MOMM*%
%LPD*%
G01*
G04 APERTURE LIST*
%ADD10C,0.150000*%
%ADD11C,0.100000*%
G04 APERTURE END LIST*
D10*
X38548184Y20542858D02*
X38494613Y20495239D01*
X38345803Y20447620D01*
X38250565Y20447620D01*
X38113660Y20495239D01*
X38030327Y20590477D01*
X37994613Y20685715D01*
X37970803Y20876191D01*
X37988660Y21019048D01*
X38060089Y21209524D01*
X38119613Y21304762D01*
X38226755Y21400000D01*
X38375565Y21447620D01*
X38470803Y21447620D01*
X38607708Y21400000D01*
X38649375Y21352381D01*
X38964851Y20447620D02*
X39089851Y21447620D01*
X39030327Y20971429D02*
X39601755Y20971429D01*
X39536279Y20447620D02*
X39661279Y21447620D01*
X40000565Y20733334D02*
X40476755Y20733334D01*
X39869613Y20447620D02*
X40327946Y21447620D01*
X40536279Y20447620D01*
X40869613Y20447620D02*
X40994613Y21447620D01*
X41441041Y20447620D01*
X41566041Y21447620D01*
X42560089Y21400000D02*
X42470803Y21447620D01*
X42327946Y21447620D01*
X42179136Y21400000D01*
X42071994Y21304762D01*
X42012470Y21209524D01*
X41941041Y21019048D01*
X41923184Y20876191D01*
X41946994Y20685715D01*
X41982708Y20590477D01*
X42066041Y20495239D01*
X42202946Y20447620D01*
X42298184Y20447620D01*
X42446994Y20495239D01*
X42500565Y20542858D01*
X42542232Y20876191D01*
X42351755Y20876191D01*
X42982708Y20971429D02*
X43316041Y20971429D01*
X43393422Y20447620D02*
X42917232Y20447620D01*
X43042232Y21447620D01*
X43518422Y21447620D01*
%TO.C,J2*%
X-2728572Y46002620D02*
X-2728572Y47002620D01*
X-2347620Y47002620D01*
X-2252381Y46955000D01*
X-2204762Y46907381D01*
X-2157143Y46812143D01*
X-2157143Y46669286D01*
X-2204762Y46574048D01*
X-2252381Y46526429D01*
X-2347620Y46478810D01*
X-2728572Y46478810D01*
X-1157143Y46097858D02*
X-1204762Y46050239D01*
X-1347620Y46002620D01*
X-1442858Y46002620D01*
X-1585715Y46050239D01*
X-1680953Y46145477D01*
X-1728572Y46240715D01*
X-1776191Y46431191D01*
X-1776191Y46574048D01*
X-1728572Y46764524D01*
X-1680953Y46859762D01*
X-1585715Y46955000D01*
X-1442858Y47002620D01*
X-1347620Y47002620D01*
X-1204762Y46955000D01*
X-1157143Y46907381D01*
X-395239Y46526429D02*
X-252381Y46478810D01*
X-204762Y46431191D01*
X-157143Y46335953D01*
X-157143Y46193096D01*
X-204762Y46097858D01*
X-252381Y46050239D01*
X-347620Y46002620D01*
X-728572Y46002620D01*
X-728572Y47002620D01*
X-395239Y47002620D01*
X-300000Y46955000D01*
X-252381Y46907381D01*
X-204762Y46812143D01*
X-204762Y46716905D01*
X-252381Y46621667D01*
X-300000Y46574048D01*
X-395239Y46526429D01*
X-728572Y46526429D01*
X1033333Y46526429D02*
X1366666Y46526429D01*
X1509523Y46002620D02*
X1033333Y46002620D01*
X1033333Y47002620D01*
X1509523Y47002620D01*
X2366666Y46002620D02*
X2366666Y47002620D01*
X2366666Y46050239D02*
X2271428Y46002620D01*
X2080952Y46002620D01*
X1985714Y46050239D01*
X1938095Y46097858D01*
X1890476Y46193096D01*
X1890476Y46478810D01*
X1938095Y46574048D01*
X1985714Y46621667D01*
X2080952Y46669286D01*
X2271428Y46669286D01*
X2366666Y46621667D01*
X3271428Y46669286D02*
X3271428Y45859762D01*
X3223809Y45764524D01*
X3176190Y45716905D01*
X3080952Y45669286D01*
X2938095Y45669286D01*
X2842857Y45716905D01*
X3271428Y46050239D02*
X3176190Y46002620D01*
X2985714Y46002620D01*
X2890476Y46050239D01*
X2842857Y46097858D01*
X2795238Y46193096D01*
X2795238Y46478810D01*
X2842857Y46574048D01*
X2890476Y46621667D01*
X2985714Y46669286D01*
X3176190Y46669286D01*
X3271428Y46621667D01*
X4128571Y46050239D02*
X4033333Y46002620D01*
X3842857Y46002620D01*
X3747619Y46050239D01*
X3700000Y46145477D01*
X3700000Y46526429D01*
X3747619Y46621667D01*
X3842857Y46669286D01*
X4033333Y46669286D01*
X4128571Y46621667D01*
X4176190Y46526429D01*
X4176190Y46431191D01*
X3700000Y46335953D01*
D11*
X5170000Y47365000D02*
X-3770000Y47365000D01*
%TD*%
M02*
