%TF.GenerationSoftware,KiCad,Pcbnew,(6.0.8)*%
%TF.CreationDate,2022-10-08T09:35:05+11:00*%
%TF.ProjectId,KEEBPAD-MK,4b454542-5041-4442-9d4d-4b2e6b696361,1.0.0*%
%TF.SameCoordinates,PX8f0d180PY8f0d180*%
%TF.FileFunction,Paste,Top*%
%TF.FilePolarity,Positive*%
%FSLAX46Y46*%
G04 Gerber Fmt 4.6, Leading zero omitted, Abs format (unit mm)*
G04 Created by KiCad (PCBNEW (6.0.8)) date 2022-10-08 09:35:05*
%MOMM*%
%LPD*%
G01*
G04 APERTURE LIST*
G04 Aperture macros list*
%AMRoundRect*
0 Rectangle with rounded corners*
0 $1 Rounding radius*
0 $2 $3 $4 $5 $6 $7 $8 $9 X,Y pos of 4 corners*
0 Add a 4 corners polygon primitive as box body*
4,1,4,$2,$3,$4,$5,$6,$7,$8,$9,$2,$3,0*
0 Add four circle primitives for the rounded corners*
1,1,$1+$1,$2,$3*
1,1,$1+$1,$4,$5*
1,1,$1+$1,$6,$7*
1,1,$1+$1,$8,$9*
0 Add four rect primitives between the rounded corners*
20,1,$1+$1,$2,$3,$4,$5,0*
20,1,$1+$1,$4,$5,$6,$7,0*
20,1,$1+$1,$6,$7,$8,$9,0*
20,1,$1+$1,$8,$9,$2,$3,0*%
G04 Aperture macros list end*
%ADD10RoundRect,0.250000X-0.475000X0.250000X-0.475000X-0.250000X0.475000X-0.250000X0.475000X0.250000X0*%
%ADD11RoundRect,0.140000X-0.170000X0.140000X-0.170000X-0.140000X0.170000X-0.140000X0.170000X0.140000X0*%
%ADD12RoundRect,0.200000X-0.275000X0.200000X-0.275000X-0.200000X0.275000X-0.200000X0.275000X0.200000X0*%
%ADD13RoundRect,0.140000X0.140000X0.170000X-0.140000X0.170000X-0.140000X-0.170000X0.140000X-0.170000X0*%
%ADD14RoundRect,0.200000X0.275000X-0.200000X0.275000X0.200000X-0.275000X0.200000X-0.275000X-0.200000X0*%
%ADD15RoundRect,0.250000X-0.375000X-1.075000X0.375000X-1.075000X0.375000X1.075000X-0.375000X1.075000X0*%
%ADD16RoundRect,0.200000X-0.200000X-0.275000X0.200000X-0.275000X0.200000X0.275000X-0.200000X0.275000X0*%
%ADD17RoundRect,0.140000X0.170000X-0.140000X0.170000X0.140000X-0.170000X0.140000X-0.170000X-0.140000X0*%
%ADD18R,0.300000X1.300000*%
%ADD19R,1.800000X2.200000*%
%ADD20R,1.500000X1.000000*%
%ADD21RoundRect,0.250000X-0.650000X0.325000X-0.650000X-0.325000X0.650000X-0.325000X0.650000X0.325000X0*%
%ADD22R,0.600000X1.160000*%
%ADD23R,0.300000X1.160000*%
%ADD24RoundRect,0.225000X-0.250000X0.225000X-0.250000X-0.225000X0.250000X-0.225000X0.250000X0.225000X0*%
G04 APERTURE END LIST*
D10*
%TO.C,C4*%
X-36300000Y10950000D03*
X-36300000Y9050000D03*
%TD*%
D11*
%TO.C,C1*%
X-21400000Y15480000D03*
X-21400000Y14520000D03*
%TD*%
D12*
%TO.C,R6*%
X-8000000Y42625000D03*
X-8000000Y40975000D03*
%TD*%
D11*
%TO.C,C6*%
X-24800000Y15480000D03*
X-24800000Y14520000D03*
%TD*%
D12*
%TO.C,R7*%
X-15000000Y41325000D03*
X-15000000Y39675000D03*
%TD*%
D13*
%TO.C,C3*%
X-35620000Y13100000D03*
X-36580000Y13100000D03*
%TD*%
D12*
%TO.C,R4*%
X-32800000Y11425000D03*
X-32800000Y9775000D03*
%TD*%
D14*
%TO.C,R1*%
X-31200000Y9775000D03*
X-31200000Y11425000D03*
%TD*%
%TO.C,R2*%
X-29600000Y9775000D03*
X-29600000Y11425000D03*
%TD*%
D15*
%TO.C,F1*%
X11100000Y42000000D03*
X13900000Y42000000D03*
%TD*%
D16*
%TO.C,R3*%
X-24625000Y17100000D03*
X-22975000Y17100000D03*
%TD*%
D17*
%TO.C,C2*%
X-22533334Y14520000D03*
X-22533334Y15480000D03*
%TD*%
D11*
%TO.C,C5*%
X-23666668Y15480000D03*
X-23666668Y14520000D03*
%TD*%
D18*
%TO.C,J1*%
X-28450000Y14950000D03*
X-28950000Y14950000D03*
X-29450000Y14950000D03*
X-29950000Y14950000D03*
X-30450000Y14950000D03*
X-30950000Y14950000D03*
X-31450000Y14950000D03*
X-31950000Y14950000D03*
X-32450000Y14950000D03*
X-32950000Y14950000D03*
X-33450000Y14950000D03*
X-33950000Y14950000D03*
X-34450000Y14950000D03*
X-34950000Y14950000D03*
X-35450000Y14950000D03*
X-35950000Y14950000D03*
D19*
X-26550000Y18200000D03*
X-37850000Y18200000D03*
%TD*%
D20*
%TO.C,D1*%
X44650000Y38500000D03*
X44650000Y35300000D03*
X49550000Y35300000D03*
X49550000Y38500000D03*
%TD*%
D21*
%TO.C,C8*%
X41700000Y38575000D03*
X41700000Y35625000D03*
%TD*%
D22*
%TO.C,J2*%
X3900000Y40515000D03*
X3100000Y40515000D03*
D23*
X1950000Y40515000D03*
X950000Y40515000D03*
X450000Y40515000D03*
X-550000Y40515000D03*
D22*
X-1700000Y40515000D03*
X-2500000Y40515000D03*
X-2500000Y40515000D03*
X-1700000Y40515000D03*
D23*
X-1050000Y40515000D03*
X-50000Y40515000D03*
X1450000Y40515000D03*
X2450000Y40515000D03*
D22*
X3100000Y40515000D03*
X3900000Y40515000D03*
%TD*%
D24*
%TO.C,C7*%
X-34400000Y11375000D03*
X-34400000Y9825000D03*
%TD*%
D12*
%TO.C,R8*%
X-17500000Y41325000D03*
X-17500000Y39675000D03*
%TD*%
D14*
%TO.C,R5*%
X-6400000Y40975000D03*
X-6400000Y42625000D03*
%TD*%
M02*
