M48
; DRILL file {KiCad (6.0.8)} date Sat 08 Oct 2022 09:09:16 PM AEDT
; FORMAT={-:-/ absolute / metric / decimal}
; #@! TF.CreationDate,2022-10-08T21:09:16+11:00
; #@! TF.GenerationSoftware,Kicad,Pcbnew,(6.0.8)
; #@! TF.FileFunction,MixedPlating,1,4
FMAT,2
METRIC
; #@! TA.AperFunction,Plated,PTH,ComponentDrill
T1C0.600
; #@! TA.AperFunction,Plated,PTH,ViaDrill
T2C1.000
; #@! TA.AperFunction,Plated,PTH,ComponentDrill
T3C1.000
; #@! TA.AperFunction,Plated,PTH,ComponentDrill
T4C1.500
; #@! TA.AperFunction,Plated,PTH,ComponentDrill
T5C3.200
; #@! TA.AperFunction,NonPlated,NPTH,ComponentDrill
T6C0.600
; #@! TA.AperFunction,NonPlated,NPTH,ComponentDrill
T7C1.750
; #@! TA.AperFunction,NonPlated,NPTH,ComponentDrill
T8C4.000
%
G90
G05
T2
X-44.2Y13.9
X-38.1Y7.3
X-37.6Y14.1
X-35.4Y22.8
X-31.7Y7.3
X-25.2Y26.8
X-21.2Y17.0
X-11.41Y-24.2
X-10.7Y41.8
X-9.0Y-24.2
X-6.6Y-24.2
X-5.2Y42.6
X-2.21Y-4.6
X-1.2Y42.81
X0.0Y5.8
X0.2Y26.8
X0.2Y-4.6
X2.2Y42.8
X2.4Y45.4
X2.6Y-4.6
X9.2Y42.0
X27.2Y31.9
X41.6Y33.6
X42.59Y-5.2
X45.0Y-5.2
X47.4Y-5.2
X48.2Y41.6
X49.55Y33.6
T3
X-25.16Y37.125
X-25.16Y34.585
X-22.62Y37.125
X-22.62Y34.585
X-20.08Y37.125
X-20.08Y34.585
X-17.54Y37.125
X-17.54Y34.585
X-15.0Y37.125
X-15.0Y34.585
X-12.46Y37.125
X-12.46Y34.585
X-9.92Y37.125
X-9.92Y34.585
X-7.38Y37.125
X-7.38Y34.585
X-4.84Y37.125
X-4.84Y34.585
X-2.3Y37.125
X-2.3Y34.585
X0.24Y37.125
X0.24Y34.585
X2.78Y37.125
X2.78Y34.585
X5.32Y37.125
X5.32Y34.585
X7.86Y37.125
X7.86Y34.585
X10.4Y37.125
X10.4Y34.585
X12.94Y37.125
X12.94Y34.585
X15.48Y37.125
X15.48Y34.585
X18.02Y37.125
X18.02Y34.585
X20.56Y37.125
X20.56Y34.585
X23.1Y37.125
X23.1Y34.585
T4
X-45.935Y-18.065
X-45.93Y0.985
X-39.585Y-15.525
X-39.58Y3.525
X-26.91Y0.985
X-26.91Y-18.06
X-20.56Y3.525
X-20.56Y-15.52
X1.69Y-18.06
X8.04Y-15.52
X20.705Y-18.06
X20.73Y0.97
X27.055Y-15.52
X27.08Y3.51
X39.79Y-18.045
X46.14Y-15.505
T5
X-9.0Y-20.0
X0.0Y0.0
X45.0Y-1.0
T6
X-2.19Y41.575
X3.59Y41.575
T7
X-47.205Y-20.605
X-47.2Y-1.555
X-37.045Y-20.605
X-37.04Y-1.555
X-28.18Y-1.555
X-28.18Y-20.6
X-18.02Y-1.555
X-18.02Y-20.6
X0.42Y-20.6
X10.58Y-20.6
X19.435Y-20.6
X19.46Y-1.57
X29.595Y-20.6
X29.62Y-1.57
X38.52Y-20.585
X48.68Y-20.585
T8
X-42.125Y-20.605
X-42.12Y-1.555
X-23.1Y-1.555
X-23.1Y-20.6
X5.5Y-20.6
X24.515Y-20.6
X24.54Y-1.57
X43.6Y-20.585
T1
G00X-3.62Y45.665
M15
G01X-3.62Y44.865
M16
G05
G00X-3.62Y41.645
M15
G01X-3.62Y40.545
M16
G05
G00X5.02Y45.665
M15
G01X5.02Y44.865
M16
G05
G00X5.02Y41.645
M15
G01X5.02Y40.545
M16
G05
T0
M30
