%TF.GenerationSoftware,KiCad,Pcbnew,(6.0.8)*%
%TF.CreationDate,2022-10-08T09:35:05+11:00*%
%TF.ProjectId,KEEBPAD-MK,4b454542-5041-4442-9d4d-4b2e6b696361,1.0.0*%
%TF.SameCoordinates,PX8f0d180PY8f0d180*%
%TF.FileFunction,Soldermask,Top*%
%TF.FilePolarity,Negative*%
%FSLAX46Y46*%
G04 Gerber Fmt 4.6, Leading zero omitted, Abs format (unit mm)*
G04 Created by KiCad (PCBNEW (6.0.8)) date 2022-10-08 09:35:05*
%MOMM*%
%LPD*%
G01*
G04 APERTURE LIST*
G04 Aperture macros list*
%AMRoundRect*
0 Rectangle with rounded corners*
0 $1 Rounding radius*
0 $2 $3 $4 $5 $6 $7 $8 $9 X,Y pos of 4 corners*
0 Add a 4 corners polygon primitive as box body*
4,1,4,$2,$3,$4,$5,$6,$7,$8,$9,$2,$3,0*
0 Add four circle primitives for the rounded corners*
1,1,$1+$1,$2,$3*
1,1,$1+$1,$4,$5*
1,1,$1+$1,$6,$7*
1,1,$1+$1,$8,$9*
0 Add four rect primitives between the rounded corners*
20,1,$1+$1,$2,$3,$4,$5,0*
20,1,$1+$1,$4,$5,$6,$7,0*
20,1,$1+$1,$6,$7,$8,$9,0*
20,1,$1+$1,$8,$9,$2,$3,0*%
G04 Aperture macros list end*
%ADD10RoundRect,0.326200X-0.475000X0.250000X-0.475000X-0.250000X0.475000X-0.250000X0.475000X0.250000X0*%
%ADD11RoundRect,0.216200X-0.170000X0.140000X-0.170000X-0.140000X0.170000X-0.140000X0.170000X0.140000X0*%
%ADD12RoundRect,0.276200X-0.275000X0.200000X-0.275000X-0.200000X0.275000X-0.200000X0.275000X0.200000X0*%
%ADD13C,1.902400*%
%ADD14C,4.152400*%
%ADD15C,1.550000*%
%ADD16RoundRect,0.076200X-0.850000X0.850000X-0.850000X-0.850000X0.850000X-0.850000X0.850000X0.850000X0*%
%ADD17O,1.852400X1.852400*%
%ADD18RoundRect,0.216200X0.140000X0.170000X-0.140000X0.170000X-0.140000X-0.170000X0.140000X-0.170000X0*%
%ADD19RoundRect,0.276200X0.275000X-0.200000X0.275000X0.200000X-0.275000X0.200000X-0.275000X-0.200000X0*%
%ADD20RoundRect,0.326200X-0.375000X-1.075000X0.375000X-1.075000X0.375000X1.075000X-0.375000X1.075000X0*%
%ADD21RoundRect,0.276200X-0.200000X-0.275000X0.200000X-0.275000X0.200000X0.275000X-0.200000X0.275000X0*%
%ADD22RoundRect,0.216200X0.170000X-0.140000X0.170000X0.140000X-0.170000X0.140000X-0.170000X-0.140000X0*%
%ADD23RoundRect,0.076200X0.150000X0.650000X-0.150000X0.650000X-0.150000X-0.650000X0.150000X-0.650000X0*%
%ADD24RoundRect,0.076200X0.900000X1.100000X-0.900000X1.100000X-0.900000X-1.100000X0.900000X-1.100000X0*%
%ADD25C,5.852400*%
%ADD26RoundRect,0.076200X-0.750000X-0.500000X0.750000X-0.500000X0.750000X0.500000X-0.750000X0.500000X0*%
%ADD27RoundRect,0.326200X-0.650000X0.325000X-0.650000X-0.325000X0.650000X-0.325000X0.650000X0.325000X0*%
%ADD28C,0.752400*%
%ADD29RoundRect,0.076200X0.300000X0.580000X-0.300000X0.580000X-0.300000X-0.580000X0.300000X-0.580000X0*%
%ADD30RoundRect,0.076200X-0.150000X-0.580000X0.150000X-0.580000X0.150000X0.580000X-0.150000X0.580000X0*%
%ADD31O,1.052400X1.852400*%
%ADD32O,1.052400X2.152400*%
%ADD33RoundRect,0.301200X-0.250000X0.225000X-0.250000X-0.225000X0.250000X-0.225000X0.250000X0.225000X0*%
G04 APERTURE END LIST*
D10*
%TO.C,C4*%
X-36300000Y10950000D03*
X-36300000Y9050000D03*
%TD*%
D11*
%TO.C,C1*%
X-21400000Y15480000D03*
X-21400000Y14520000D03*
%TD*%
D12*
%TO.C,R6*%
X-8000000Y42625000D03*
X-8000000Y40975000D03*
%TD*%
D11*
%TO.C,C6*%
X-24800000Y15480000D03*
X-24800000Y14520000D03*
%TD*%
D13*
%TO.C,SW4*%
X48680000Y-20585126D03*
D14*
X43600000Y-20585126D03*
D15*
X46140000Y-15505126D03*
X39790000Y-18045126D03*
D13*
X38520000Y-20585126D03*
%TD*%
D16*
%TO.C,B1*%
X23099999Y37125000D03*
D17*
X23099999Y34585000D03*
X20559999Y37125000D03*
X20559999Y34585000D03*
X18019999Y37125000D03*
X18019999Y34585000D03*
X15479999Y37125000D03*
X15479999Y34585000D03*
X12939999Y37125000D03*
X12939999Y34585000D03*
X10399999Y37125000D03*
X10399999Y34585000D03*
X7859999Y37125000D03*
X7859999Y34585000D03*
X5319999Y37125000D03*
X5319999Y34585000D03*
X2779999Y37125000D03*
X2779999Y34585000D03*
X239999Y37125000D03*
X239999Y34585000D03*
X-2300001Y37125000D03*
X-2300001Y34585000D03*
X-4840001Y37125000D03*
X-4840001Y34585000D03*
X-7380001Y37125000D03*
X-7380001Y34585000D03*
X-9920001Y37125000D03*
X-9920001Y34585000D03*
X-12460001Y37125000D03*
X-12460001Y34585000D03*
X-15000001Y37125000D03*
X-15000001Y34585000D03*
X-17540001Y37125000D03*
X-17540001Y34585000D03*
X-20080001Y37125000D03*
X-20080001Y34585000D03*
X-22620001Y37125000D03*
X-22620001Y34585000D03*
X-25160001Y37125000D03*
X-25160001Y34585000D03*
%TD*%
D14*
%TO.C,SW6*%
X24540000Y-1570000D03*
D15*
X27080000Y3510000D03*
X20730000Y970000D03*
D13*
X19460000Y-1570000D03*
X29620000Y-1570000D03*
%TD*%
D12*
%TO.C,R7*%
X-15000000Y41325000D03*
X-15000000Y39675000D03*
%TD*%
D18*
%TO.C,C3*%
X-35620000Y13100000D03*
X-36580000Y13100000D03*
%TD*%
D13*
%TO.C,SW1*%
X-47200251Y-1554749D03*
D15*
X-45930251Y985251D03*
D13*
X-37040251Y-1554749D03*
D14*
X-42120251Y-1554749D03*
D15*
X-39580251Y3525251D03*
%TD*%
D12*
%TO.C,R4*%
X-32800000Y11425000D03*
X-32800000Y9775000D03*
%TD*%
D19*
%TO.C,R1*%
X-31200000Y9775000D03*
X-31200000Y11425000D03*
%TD*%
%TO.C,R2*%
X-29600000Y9775000D03*
X-29600000Y11425000D03*
%TD*%
D20*
%TO.C,F1*%
X11100000Y42000000D03*
X13900000Y42000000D03*
%TD*%
D21*
%TO.C,R3*%
X-24625000Y17100000D03*
X-22975000Y17100000D03*
%TD*%
D22*
%TO.C,C2*%
X-22533334Y14520000D03*
X-22533334Y15480000D03*
%TD*%
D13*
%TO.C,SW5*%
X-28180000Y-20600000D03*
X-18020000Y-20600000D03*
D15*
X-20560000Y-15520000D03*
D14*
X-23100000Y-20600000D03*
D15*
X-26910000Y-18060000D03*
%TD*%
%TO.C,SW8*%
X27054875Y-15520000D03*
D14*
X24514875Y-20600000D03*
D13*
X29594875Y-20600000D03*
D15*
X20704875Y-18060000D03*
D13*
X19434875Y-20600000D03*
%TD*%
D11*
%TO.C,C5*%
X-23666668Y15480000D03*
X-23666668Y14520000D03*
%TD*%
D13*
%TO.C,SW7*%
X-47205000Y-20604749D03*
D14*
X-42125000Y-20604749D03*
D13*
X-37045000Y-20604749D03*
D15*
X-39585000Y-15524749D03*
X-45935000Y-18064749D03*
%TD*%
D23*
%TO.C,J1*%
X-28450000Y14950000D03*
X-28950000Y14950000D03*
X-29450000Y14950000D03*
X-29950000Y14950000D03*
X-30450000Y14950000D03*
X-30950000Y14950000D03*
X-31450000Y14950000D03*
X-31950000Y14950000D03*
X-32450000Y14950000D03*
X-32950000Y14950000D03*
X-33450000Y14950000D03*
X-33950000Y14950000D03*
X-34450000Y14950000D03*
X-34950000Y14950000D03*
X-35450000Y14950000D03*
X-35950000Y14950000D03*
D24*
X-26550000Y18200000D03*
X-37850000Y18200000D03*
%TD*%
D25*
%TO.C,H1*%
X-9000000Y-20000000D03*
%TD*%
D14*
%TO.C,SW2*%
X5500000Y-20600000D03*
D13*
X10580000Y-20600000D03*
X420000Y-20600000D03*
D15*
X8040000Y-15520000D03*
X1690000Y-18060000D03*
%TD*%
D25*
%TO.C,H2*%
X45000000Y-1000000D03*
%TD*%
D26*
%TO.C,D1*%
X44650000Y38500000D03*
X44650000Y35300000D03*
X49550000Y35300000D03*
X49550000Y38500000D03*
%TD*%
D27*
%TO.C,C8*%
X41700000Y38575000D03*
X41700000Y35625000D03*
%TD*%
D15*
%TO.C,SW3*%
X-26910000Y985251D03*
D13*
X-18020000Y-1554749D03*
X-28180000Y-1554749D03*
D15*
X-20560000Y3525251D03*
D14*
X-23100000Y-1554749D03*
%TD*%
D25*
%TO.C,H3*%
X0Y0D03*
%TD*%
D28*
%TO.C,J2*%
X-2190000Y41575000D03*
X3590000Y41575000D03*
D29*
X3900000Y40515000D03*
X3100000Y40515000D03*
D30*
X1950000Y40515000D03*
X950000Y40515000D03*
X450000Y40515000D03*
X-550000Y40515000D03*
D29*
X-1700000Y40515000D03*
X-2500000Y40515000D03*
X-2500000Y40515000D03*
X-1700000Y40515000D03*
D30*
X-1050000Y40515000D03*
X-50000Y40515000D03*
X1450000Y40515000D03*
X2450000Y40515000D03*
D29*
X3100000Y40515000D03*
X3900000Y40515000D03*
D31*
X5020000Y45265000D03*
D32*
X5020000Y41095000D03*
D31*
X-3620000Y45265000D03*
D32*
X-3620000Y41095000D03*
%TD*%
D33*
%TO.C,C7*%
X-34400000Y11375000D03*
X-34400000Y9825000D03*
%TD*%
D12*
%TO.C,R8*%
X-17500000Y41325000D03*
X-17500000Y39675000D03*
%TD*%
D19*
%TO.C,R5*%
X-6400000Y40975000D03*
X-6400000Y42625000D03*
%TD*%
G36*
X-32752663Y15661694D02*
G01*
X-32752520Y15661609D01*
X-32752128Y15661304D01*
X-32734646Y15643822D01*
X-32718661Y15633141D01*
X-32700000Y15629429D01*
X-32681339Y15633141D01*
X-32665354Y15643822D01*
X-32647872Y15661304D01*
X-32647469Y15661615D01*
X-32647382Y15661666D01*
X-32645382Y15661680D01*
X-32644371Y15659954D01*
X-32644956Y15658528D01*
X-32660385Y15643073D01*
X-32671090Y15621171D01*
X-32674200Y15599855D01*
X-32674200Y14300147D01*
X-32671052Y14278701D01*
X-32660310Y14256822D01*
X-32644902Y14241440D01*
X-32644383Y14239509D01*
X-32645796Y14238094D01*
X-32647337Y14238306D01*
X-32647480Y14238391D01*
X-32647872Y14238696D01*
X-32665354Y14256178D01*
X-32681339Y14266859D01*
X-32700000Y14270571D01*
X-32718661Y14266859D01*
X-32734646Y14256178D01*
X-32752128Y14238696D01*
X-32752531Y14238385D01*
X-32752618Y14238334D01*
X-32754618Y14238320D01*
X-32755629Y14240046D01*
X-32755044Y14241472D01*
X-32739615Y14256927D01*
X-32728910Y14278829D01*
X-32725800Y14300145D01*
X-32725800Y15599853D01*
X-32728948Y15621299D01*
X-32739690Y15643178D01*
X-32755098Y15658560D01*
X-32755617Y15660491D01*
X-32754204Y15661906D01*
X-32752663Y15661694D01*
G37*
G36*
X-34752663Y15661694D02*
G01*
X-34752520Y15661609D01*
X-34752128Y15661304D01*
X-34734646Y15643822D01*
X-34718661Y15633141D01*
X-34700000Y15629429D01*
X-34681339Y15633141D01*
X-34665354Y15643822D01*
X-34647872Y15661304D01*
X-34647469Y15661615D01*
X-34647382Y15661666D01*
X-34645382Y15661680D01*
X-34644371Y15659954D01*
X-34644956Y15658528D01*
X-34660385Y15643073D01*
X-34671090Y15621171D01*
X-34674200Y15599855D01*
X-34674200Y14300147D01*
X-34671052Y14278701D01*
X-34660310Y14256822D01*
X-34644902Y14241440D01*
X-34644383Y14239509D01*
X-34645796Y14238094D01*
X-34647337Y14238306D01*
X-34647480Y14238391D01*
X-34647872Y14238696D01*
X-34665354Y14256178D01*
X-34681339Y14266859D01*
X-34700000Y14270571D01*
X-34718661Y14266859D01*
X-34734646Y14256178D01*
X-34752128Y14238696D01*
X-34752531Y14238385D01*
X-34752618Y14238334D01*
X-34754618Y14238320D01*
X-34755629Y14240046D01*
X-34755044Y14241472D01*
X-34739615Y14256927D01*
X-34728910Y14278829D01*
X-34725800Y14300145D01*
X-34725800Y15599853D01*
X-34728948Y15621299D01*
X-34739690Y15643178D01*
X-34755098Y15658560D01*
X-34755617Y15660491D01*
X-34754204Y15661906D01*
X-34752663Y15661694D01*
G37*
G36*
X-33252663Y15661694D02*
G01*
X-33252520Y15661609D01*
X-33252128Y15661304D01*
X-33234646Y15643822D01*
X-33218661Y15633141D01*
X-33200000Y15629429D01*
X-33181339Y15633141D01*
X-33165354Y15643822D01*
X-33147872Y15661304D01*
X-33147469Y15661615D01*
X-33147382Y15661666D01*
X-33145382Y15661680D01*
X-33144371Y15659954D01*
X-33144956Y15658528D01*
X-33160385Y15643073D01*
X-33171090Y15621171D01*
X-33174200Y15599855D01*
X-33174200Y14300147D01*
X-33171052Y14278701D01*
X-33160310Y14256822D01*
X-33144902Y14241440D01*
X-33144383Y14239509D01*
X-33145796Y14238094D01*
X-33147337Y14238306D01*
X-33147480Y14238391D01*
X-33147872Y14238696D01*
X-33165354Y14256178D01*
X-33181339Y14266859D01*
X-33200000Y14270571D01*
X-33218661Y14266859D01*
X-33234646Y14256178D01*
X-33252128Y14238696D01*
X-33252531Y14238385D01*
X-33252618Y14238334D01*
X-33254618Y14238320D01*
X-33255629Y14240046D01*
X-33255044Y14241472D01*
X-33239615Y14256927D01*
X-33228910Y14278829D01*
X-33225800Y14300145D01*
X-33225800Y15599853D01*
X-33228948Y15621299D01*
X-33239690Y15643178D01*
X-33255098Y15658560D01*
X-33255617Y15660491D01*
X-33254204Y15661906D01*
X-33252663Y15661694D01*
G37*
G36*
X-29752663Y15661694D02*
G01*
X-29752520Y15661609D01*
X-29752128Y15661304D01*
X-29734646Y15643822D01*
X-29718661Y15633141D01*
X-29700000Y15629429D01*
X-29681339Y15633141D01*
X-29665354Y15643822D01*
X-29647872Y15661304D01*
X-29647469Y15661615D01*
X-29647382Y15661666D01*
X-29645382Y15661680D01*
X-29644371Y15659954D01*
X-29644956Y15658528D01*
X-29660385Y15643073D01*
X-29671090Y15621171D01*
X-29674200Y15599855D01*
X-29674200Y14300147D01*
X-29671052Y14278701D01*
X-29660310Y14256822D01*
X-29644902Y14241440D01*
X-29644383Y14239509D01*
X-29645796Y14238094D01*
X-29647337Y14238306D01*
X-29647480Y14238391D01*
X-29647872Y14238696D01*
X-29665354Y14256178D01*
X-29681339Y14266859D01*
X-29700000Y14270571D01*
X-29718661Y14266859D01*
X-29734646Y14256178D01*
X-29752128Y14238696D01*
X-29752531Y14238385D01*
X-29752618Y14238334D01*
X-29754618Y14238320D01*
X-29755629Y14240046D01*
X-29755044Y14241472D01*
X-29739615Y14256927D01*
X-29728910Y14278829D01*
X-29725800Y14300145D01*
X-29725800Y15599853D01*
X-29728948Y15621299D01*
X-29739690Y15643178D01*
X-29755098Y15658560D01*
X-29755617Y15660491D01*
X-29754204Y15661906D01*
X-29752663Y15661694D01*
G37*
G36*
X-34252663Y15661694D02*
G01*
X-34252520Y15661609D01*
X-34252128Y15661304D01*
X-34234646Y15643822D01*
X-34218661Y15633141D01*
X-34200000Y15629429D01*
X-34181339Y15633141D01*
X-34165354Y15643822D01*
X-34147872Y15661304D01*
X-34147469Y15661615D01*
X-34147382Y15661666D01*
X-34145382Y15661680D01*
X-34144371Y15659954D01*
X-34144956Y15658528D01*
X-34160385Y15643073D01*
X-34171090Y15621171D01*
X-34174200Y15599855D01*
X-34174200Y14300147D01*
X-34171052Y14278701D01*
X-34160310Y14256822D01*
X-34144902Y14241440D01*
X-34144383Y14239509D01*
X-34145796Y14238094D01*
X-34147337Y14238306D01*
X-34147480Y14238391D01*
X-34147872Y14238696D01*
X-34165354Y14256178D01*
X-34181339Y14266859D01*
X-34200000Y14270571D01*
X-34218661Y14266859D01*
X-34234646Y14256178D01*
X-34252128Y14238696D01*
X-34252531Y14238385D01*
X-34252618Y14238334D01*
X-34254618Y14238320D01*
X-34255629Y14240046D01*
X-34255044Y14241472D01*
X-34239615Y14256927D01*
X-34228910Y14278829D01*
X-34225800Y14300145D01*
X-34225800Y15599853D01*
X-34228948Y15621299D01*
X-34239690Y15643178D01*
X-34255098Y15658560D01*
X-34255617Y15660491D01*
X-34254204Y15661906D01*
X-34252663Y15661694D01*
G37*
G36*
X-29252663Y15661694D02*
G01*
X-29252520Y15661609D01*
X-29252128Y15661304D01*
X-29234646Y15643822D01*
X-29218661Y15633141D01*
X-29200000Y15629429D01*
X-29181339Y15633141D01*
X-29165354Y15643822D01*
X-29147872Y15661304D01*
X-29147469Y15661615D01*
X-29147382Y15661666D01*
X-29145382Y15661680D01*
X-29144371Y15659954D01*
X-29144956Y15658528D01*
X-29160385Y15643073D01*
X-29171090Y15621171D01*
X-29174200Y15599855D01*
X-29174200Y14300147D01*
X-29171052Y14278701D01*
X-29160310Y14256822D01*
X-29144902Y14241440D01*
X-29144383Y14239509D01*
X-29145796Y14238094D01*
X-29147337Y14238306D01*
X-29147480Y14238391D01*
X-29147872Y14238696D01*
X-29165354Y14256178D01*
X-29181339Y14266859D01*
X-29200000Y14270571D01*
X-29218661Y14266859D01*
X-29234646Y14256178D01*
X-29252128Y14238696D01*
X-29252531Y14238385D01*
X-29252618Y14238334D01*
X-29254618Y14238320D01*
X-29255629Y14240046D01*
X-29255044Y14241472D01*
X-29239615Y14256927D01*
X-29228910Y14278829D01*
X-29225800Y14300145D01*
X-29225800Y15599853D01*
X-29228948Y15621299D01*
X-29239690Y15643178D01*
X-29255098Y15658560D01*
X-29255617Y15660491D01*
X-29254204Y15661906D01*
X-29252663Y15661694D01*
G37*
G36*
X-35252663Y15661694D02*
G01*
X-35252520Y15661609D01*
X-35252128Y15661304D01*
X-35234646Y15643822D01*
X-35218661Y15633141D01*
X-35200000Y15629429D01*
X-35181339Y15633141D01*
X-35165354Y15643822D01*
X-35147872Y15661304D01*
X-35147469Y15661615D01*
X-35147382Y15661666D01*
X-35145382Y15661680D01*
X-35144371Y15659954D01*
X-35144956Y15658528D01*
X-35160385Y15643073D01*
X-35171090Y15621171D01*
X-35174200Y15599855D01*
X-35174200Y14300147D01*
X-35171052Y14278701D01*
X-35160310Y14256822D01*
X-35144902Y14241440D01*
X-35144383Y14239509D01*
X-35145796Y14238094D01*
X-35147337Y14238306D01*
X-35147480Y14238391D01*
X-35147872Y14238696D01*
X-35165354Y14256178D01*
X-35181339Y14266859D01*
X-35200000Y14270571D01*
X-35218661Y14266859D01*
X-35234646Y14256178D01*
X-35252128Y14238696D01*
X-35252531Y14238385D01*
X-35252618Y14238334D01*
X-35254618Y14238320D01*
X-35255629Y14240046D01*
X-35255044Y14241472D01*
X-35239615Y14256927D01*
X-35228910Y14278829D01*
X-35225800Y14300145D01*
X-35225800Y15599853D01*
X-35228948Y15621299D01*
X-35239690Y15643178D01*
X-35255098Y15658560D01*
X-35255617Y15660491D01*
X-35254204Y15661906D01*
X-35252663Y15661694D01*
G37*
G36*
X-28752663Y15661694D02*
G01*
X-28752520Y15661609D01*
X-28752128Y15661304D01*
X-28734646Y15643822D01*
X-28718661Y15633141D01*
X-28700000Y15629429D01*
X-28681339Y15633141D01*
X-28665354Y15643822D01*
X-28647872Y15661304D01*
X-28647469Y15661615D01*
X-28647382Y15661666D01*
X-28645382Y15661680D01*
X-28644371Y15659954D01*
X-28644956Y15658528D01*
X-28660385Y15643073D01*
X-28671090Y15621171D01*
X-28674200Y15599855D01*
X-28674200Y14300147D01*
X-28671052Y14278701D01*
X-28660310Y14256822D01*
X-28644902Y14241440D01*
X-28644383Y14239509D01*
X-28645796Y14238094D01*
X-28647337Y14238306D01*
X-28647480Y14238391D01*
X-28647872Y14238696D01*
X-28665354Y14256178D01*
X-28681339Y14266859D01*
X-28700000Y14270571D01*
X-28718661Y14266859D01*
X-28734646Y14256178D01*
X-28752128Y14238696D01*
X-28752531Y14238385D01*
X-28752618Y14238334D01*
X-28754618Y14238320D01*
X-28755629Y14240046D01*
X-28755044Y14241472D01*
X-28739615Y14256927D01*
X-28728910Y14278829D01*
X-28725800Y14300145D01*
X-28725800Y15599853D01*
X-28728948Y15621299D01*
X-28739690Y15643178D01*
X-28755098Y15658560D01*
X-28755617Y15660491D01*
X-28754204Y15661906D01*
X-28752663Y15661694D01*
G37*
G36*
X-35752663Y15661694D02*
G01*
X-35752520Y15661609D01*
X-35752128Y15661304D01*
X-35734646Y15643822D01*
X-35718661Y15633141D01*
X-35700000Y15629429D01*
X-35681339Y15633141D01*
X-35665354Y15643822D01*
X-35647872Y15661304D01*
X-35647469Y15661615D01*
X-35647382Y15661666D01*
X-35645382Y15661680D01*
X-35644371Y15659954D01*
X-35644956Y15658528D01*
X-35660385Y15643073D01*
X-35671090Y15621171D01*
X-35674200Y15599855D01*
X-35674200Y14300147D01*
X-35671052Y14278701D01*
X-35660310Y14256822D01*
X-35644902Y14241440D01*
X-35644383Y14239509D01*
X-35645796Y14238094D01*
X-35647337Y14238306D01*
X-35647480Y14238391D01*
X-35647872Y14238696D01*
X-35665354Y14256178D01*
X-35681339Y14266859D01*
X-35700000Y14270571D01*
X-35718661Y14266859D01*
X-35734646Y14256178D01*
X-35752128Y14238696D01*
X-35752531Y14238385D01*
X-35752618Y14238334D01*
X-35754618Y14238320D01*
X-35755629Y14240046D01*
X-35755044Y14241472D01*
X-35739615Y14256927D01*
X-35728910Y14278829D01*
X-35725800Y14300145D01*
X-35725800Y15599853D01*
X-35728948Y15621299D01*
X-35739690Y15643178D01*
X-35755098Y15658560D01*
X-35755617Y15660491D01*
X-35754204Y15661906D01*
X-35752663Y15661694D01*
G37*
G36*
X-30752663Y15661694D02*
G01*
X-30752520Y15661609D01*
X-30752128Y15661304D01*
X-30734646Y15643822D01*
X-30718661Y15633141D01*
X-30700000Y15629429D01*
X-30681339Y15633141D01*
X-30665354Y15643822D01*
X-30647872Y15661304D01*
X-30647469Y15661615D01*
X-30647382Y15661666D01*
X-30645382Y15661680D01*
X-30644371Y15659954D01*
X-30644956Y15658528D01*
X-30660385Y15643073D01*
X-30671090Y15621171D01*
X-30674200Y15599855D01*
X-30674200Y14300147D01*
X-30671052Y14278701D01*
X-30660310Y14256822D01*
X-30644902Y14241440D01*
X-30644383Y14239509D01*
X-30645796Y14238094D01*
X-30647337Y14238306D01*
X-30647480Y14238391D01*
X-30647872Y14238696D01*
X-30665354Y14256178D01*
X-30681339Y14266859D01*
X-30700000Y14270571D01*
X-30718661Y14266859D01*
X-30734646Y14256178D01*
X-30752128Y14238696D01*
X-30752531Y14238385D01*
X-30752618Y14238334D01*
X-30754618Y14238320D01*
X-30755629Y14240046D01*
X-30755044Y14241472D01*
X-30739615Y14256927D01*
X-30728910Y14278829D01*
X-30725800Y14300145D01*
X-30725800Y15599853D01*
X-30728948Y15621299D01*
X-30739690Y15643178D01*
X-30755098Y15658560D01*
X-30755617Y15660491D01*
X-30754204Y15661906D01*
X-30752663Y15661694D01*
G37*
G36*
X-33752663Y15661694D02*
G01*
X-33752520Y15661609D01*
X-33752128Y15661304D01*
X-33734646Y15643822D01*
X-33718661Y15633141D01*
X-33700000Y15629429D01*
X-33681339Y15633141D01*
X-33665354Y15643822D01*
X-33647872Y15661304D01*
X-33647469Y15661615D01*
X-33647382Y15661666D01*
X-33645382Y15661680D01*
X-33644371Y15659954D01*
X-33644956Y15658528D01*
X-33660385Y15643073D01*
X-33671090Y15621171D01*
X-33674200Y15599855D01*
X-33674200Y14300147D01*
X-33671052Y14278701D01*
X-33660310Y14256822D01*
X-33644902Y14241440D01*
X-33644383Y14239509D01*
X-33645796Y14238094D01*
X-33647337Y14238306D01*
X-33647480Y14238391D01*
X-33647872Y14238696D01*
X-33665354Y14256178D01*
X-33681339Y14266859D01*
X-33700000Y14270571D01*
X-33718661Y14266859D01*
X-33734646Y14256178D01*
X-33752128Y14238696D01*
X-33752531Y14238385D01*
X-33752618Y14238334D01*
X-33754618Y14238320D01*
X-33755629Y14240046D01*
X-33755044Y14241472D01*
X-33739615Y14256927D01*
X-33728910Y14278829D01*
X-33725800Y14300145D01*
X-33725800Y15599853D01*
X-33728948Y15621299D01*
X-33739690Y15643178D01*
X-33755098Y15658560D01*
X-33755617Y15660491D01*
X-33754204Y15661906D01*
X-33752663Y15661694D01*
G37*
G36*
X-31252663Y15661694D02*
G01*
X-31252520Y15661609D01*
X-31252128Y15661304D01*
X-31234646Y15643822D01*
X-31218661Y15633141D01*
X-31200000Y15629429D01*
X-31181339Y15633141D01*
X-31165354Y15643822D01*
X-31147872Y15661304D01*
X-31147469Y15661615D01*
X-31147382Y15661666D01*
X-31145382Y15661680D01*
X-31144371Y15659954D01*
X-31144956Y15658528D01*
X-31160385Y15643073D01*
X-31171090Y15621171D01*
X-31174200Y15599855D01*
X-31174200Y14300147D01*
X-31171052Y14278701D01*
X-31160310Y14256822D01*
X-31144902Y14241440D01*
X-31144383Y14239509D01*
X-31145796Y14238094D01*
X-31147337Y14238306D01*
X-31147480Y14238391D01*
X-31147872Y14238696D01*
X-31165354Y14256178D01*
X-31181339Y14266859D01*
X-31200000Y14270571D01*
X-31218661Y14266859D01*
X-31234646Y14256178D01*
X-31252128Y14238696D01*
X-31252531Y14238385D01*
X-31252618Y14238334D01*
X-31254618Y14238320D01*
X-31255629Y14240046D01*
X-31255044Y14241472D01*
X-31239615Y14256927D01*
X-31228910Y14278829D01*
X-31225800Y14300145D01*
X-31225800Y15599853D01*
X-31228948Y15621299D01*
X-31239690Y15643178D01*
X-31255098Y15658560D01*
X-31255617Y15660491D01*
X-31254204Y15661906D01*
X-31252663Y15661694D01*
G37*
G36*
X-30252663Y15661694D02*
G01*
X-30252520Y15661609D01*
X-30252128Y15661304D01*
X-30234646Y15643822D01*
X-30218661Y15633141D01*
X-30200000Y15629429D01*
X-30181339Y15633141D01*
X-30165354Y15643822D01*
X-30147872Y15661304D01*
X-30147469Y15661615D01*
X-30147382Y15661666D01*
X-30145382Y15661680D01*
X-30144371Y15659954D01*
X-30144956Y15658528D01*
X-30160385Y15643073D01*
X-30171090Y15621171D01*
X-30174200Y15599855D01*
X-30174200Y14300147D01*
X-30171052Y14278701D01*
X-30160310Y14256822D01*
X-30144902Y14241440D01*
X-30144383Y14239509D01*
X-30145796Y14238094D01*
X-30147337Y14238306D01*
X-30147480Y14238391D01*
X-30147872Y14238696D01*
X-30165354Y14256178D01*
X-30181339Y14266859D01*
X-30200000Y14270571D01*
X-30218661Y14266859D01*
X-30234646Y14256178D01*
X-30252128Y14238696D01*
X-30252531Y14238385D01*
X-30252618Y14238334D01*
X-30254618Y14238320D01*
X-30255629Y14240046D01*
X-30255044Y14241472D01*
X-30239615Y14256927D01*
X-30228910Y14278829D01*
X-30225800Y14300145D01*
X-30225800Y15599853D01*
X-30228948Y15621299D01*
X-30239690Y15643178D01*
X-30255098Y15658560D01*
X-30255617Y15660491D01*
X-30254204Y15661906D01*
X-30252663Y15661694D01*
G37*
G36*
X-31752663Y15661694D02*
G01*
X-31752520Y15661609D01*
X-31752128Y15661304D01*
X-31734646Y15643822D01*
X-31718661Y15633141D01*
X-31700000Y15629429D01*
X-31681339Y15633141D01*
X-31665354Y15643822D01*
X-31647872Y15661304D01*
X-31647469Y15661615D01*
X-31647382Y15661666D01*
X-31645382Y15661680D01*
X-31644371Y15659954D01*
X-31644956Y15658528D01*
X-31660385Y15643073D01*
X-31671090Y15621171D01*
X-31674200Y15599855D01*
X-31674200Y14300147D01*
X-31671052Y14278701D01*
X-31660310Y14256822D01*
X-31644902Y14241440D01*
X-31644383Y14239509D01*
X-31645796Y14238094D01*
X-31647337Y14238306D01*
X-31647480Y14238391D01*
X-31647872Y14238696D01*
X-31665354Y14256178D01*
X-31681339Y14266859D01*
X-31700000Y14270571D01*
X-31718661Y14266859D01*
X-31734646Y14256178D01*
X-31752128Y14238696D01*
X-31752531Y14238385D01*
X-31752618Y14238334D01*
X-31754618Y14238320D01*
X-31755629Y14240046D01*
X-31755044Y14241472D01*
X-31739615Y14256927D01*
X-31728910Y14278829D01*
X-31725800Y14300145D01*
X-31725800Y15599853D01*
X-31728948Y15621299D01*
X-31739690Y15643178D01*
X-31755098Y15658560D01*
X-31755617Y15660491D01*
X-31754204Y15661906D01*
X-31752663Y15661694D01*
G37*
G36*
X-32252663Y15661694D02*
G01*
X-32252520Y15661609D01*
X-32252128Y15661304D01*
X-32234646Y15643822D01*
X-32218661Y15633141D01*
X-32200000Y15629429D01*
X-32181339Y15633141D01*
X-32165354Y15643822D01*
X-32147872Y15661304D01*
X-32147469Y15661615D01*
X-32147382Y15661666D01*
X-32145382Y15661680D01*
X-32144371Y15659954D01*
X-32144956Y15658528D01*
X-32160385Y15643073D01*
X-32171090Y15621171D01*
X-32174200Y15599855D01*
X-32174200Y14300147D01*
X-32171052Y14278701D01*
X-32160310Y14256822D01*
X-32144902Y14241440D01*
X-32144383Y14239509D01*
X-32145796Y14238094D01*
X-32147337Y14238306D01*
X-32147480Y14238391D01*
X-32147872Y14238696D01*
X-32165354Y14256178D01*
X-32181339Y14266859D01*
X-32200000Y14270571D01*
X-32218661Y14266859D01*
X-32234646Y14256178D01*
X-32252128Y14238696D01*
X-32252531Y14238385D01*
X-32252618Y14238334D01*
X-32254618Y14238320D01*
X-32255629Y14240046D01*
X-32255044Y14241472D01*
X-32239615Y14256927D01*
X-32228910Y14278829D01*
X-32225800Y14300145D01*
X-32225800Y15599853D01*
X-32228948Y15621299D01*
X-32239690Y15643178D01*
X-32255098Y15658560D01*
X-32255617Y15660491D01*
X-32254204Y15661906D01*
X-32252663Y15661694D01*
G37*
G36*
X1147337Y41156694D02*
G01*
X1147480Y41156609D01*
X1147872Y41156304D01*
X1165354Y41138822D01*
X1181339Y41128141D01*
X1200000Y41124429D01*
X1218661Y41128141D01*
X1234646Y41138822D01*
X1252128Y41156304D01*
X1252531Y41156615D01*
X1252618Y41156666D01*
X1254618Y41156680D01*
X1255629Y41154954D01*
X1255044Y41153528D01*
X1239615Y41138073D01*
X1228910Y41116171D01*
X1225800Y41094855D01*
X1225800Y39935147D01*
X1228948Y39913701D01*
X1239690Y39891822D01*
X1255098Y39876440D01*
X1255617Y39874509D01*
X1254204Y39873094D01*
X1252663Y39873306D01*
X1252520Y39873391D01*
X1252128Y39873696D01*
X1234646Y39891178D01*
X1218661Y39901859D01*
X1200000Y39905571D01*
X1181339Y39901859D01*
X1165354Y39891178D01*
X1147872Y39873696D01*
X1147469Y39873385D01*
X1147382Y39873334D01*
X1145382Y39873320D01*
X1144371Y39875046D01*
X1144956Y39876472D01*
X1160385Y39891927D01*
X1171090Y39913829D01*
X1174200Y39935145D01*
X1174200Y41094853D01*
X1171052Y41116299D01*
X1160310Y41138178D01*
X1144902Y41153560D01*
X1144383Y41155491D01*
X1145796Y41156906D01*
X1147337Y41156694D01*
G37*
G36*
X647337Y41156694D02*
G01*
X647480Y41156609D01*
X647872Y41156304D01*
X665354Y41138822D01*
X681339Y41128141D01*
X700000Y41124429D01*
X718661Y41128141D01*
X734646Y41138822D01*
X752128Y41156304D01*
X752531Y41156615D01*
X752618Y41156666D01*
X754618Y41156680D01*
X755629Y41154954D01*
X755044Y41153528D01*
X739615Y41138073D01*
X728910Y41116171D01*
X725800Y41094855D01*
X725800Y39935147D01*
X728948Y39913701D01*
X739690Y39891822D01*
X755098Y39876440D01*
X755617Y39874509D01*
X754204Y39873094D01*
X752663Y39873306D01*
X752520Y39873391D01*
X752128Y39873696D01*
X734646Y39891178D01*
X718661Y39901859D01*
X700000Y39905571D01*
X681339Y39901859D01*
X665354Y39891178D01*
X647872Y39873696D01*
X647469Y39873385D01*
X647382Y39873334D01*
X645382Y39873320D01*
X644371Y39875046D01*
X644956Y39876472D01*
X660385Y39891927D01*
X671090Y39913829D01*
X674200Y39935145D01*
X674200Y41094853D01*
X671052Y41116299D01*
X660310Y41138178D01*
X644902Y41153560D01*
X644383Y41155491D01*
X645796Y41156906D01*
X647337Y41156694D01*
G37*
G36*
X3811797Y41270676D02*
G01*
X3811035Y41268971D01*
X3800258Y41260520D01*
X3787736Y41245935D01*
X3781808Y41227853D01*
X3783252Y41208884D01*
X3791844Y41191912D01*
X3806278Y41179519D01*
X3824494Y41173547D01*
X3830318Y41173196D01*
X3831987Y41172094D01*
X3831867Y41170098D01*
X3830198Y41169200D01*
X3600147Y41169200D01*
X3578701Y41166052D01*
X3556822Y41155310D01*
X3539615Y41138074D01*
X3528910Y41116171D01*
X3525800Y41094855D01*
X3525800Y39935147D01*
X3528948Y39913701D01*
X3539690Y39891822D01*
X3555098Y39876440D01*
X3555617Y39874509D01*
X3554204Y39873094D01*
X3552663Y39873306D01*
X3552520Y39873391D01*
X3552128Y39873696D01*
X3534646Y39891178D01*
X3518661Y39901859D01*
X3500000Y39905571D01*
X3481339Y39901859D01*
X3465354Y39891178D01*
X3447872Y39873696D01*
X3447469Y39873385D01*
X3447382Y39873334D01*
X3445382Y39873320D01*
X3444371Y39875046D01*
X3444956Y39876472D01*
X3460385Y39891927D01*
X3471090Y39913829D01*
X3474200Y39935145D01*
X3474200Y41094853D01*
X3471052Y41116299D01*
X3460310Y41138178D01*
X3443074Y41155385D01*
X3421171Y41166090D01*
X3399855Y41169200D01*
X3351055Y41169200D01*
X3349323Y41170200D01*
X3349323Y41172200D01*
X3350665Y41173162D01*
X3369716Y41176952D01*
X3385533Y41187521D01*
X3396102Y41203338D01*
X3399814Y41221999D01*
X3396102Y41240660D01*
X3385485Y41256550D01*
X3379105Y41261633D01*
X3378373Y41263494D01*
X3379620Y41265058D01*
X3381383Y41264910D01*
X3420116Y41241591D01*
X3468794Y41220979D01*
X3519883Y41207433D01*
X3572376Y41201220D01*
X3625212Y41202466D01*
X3677354Y41211144D01*
X3727749Y41227082D01*
X3775400Y41249963D01*
X3808690Y41272208D01*
X3810686Y41272339D01*
X3811797Y41270676D01*
G37*
G36*
X2147337Y41156694D02*
G01*
X2147480Y41156609D01*
X2147872Y41156304D01*
X2165354Y41138822D01*
X2181339Y41128141D01*
X2200000Y41124429D01*
X2218661Y41128141D01*
X2234646Y41138822D01*
X2252128Y41156304D01*
X2252531Y41156615D01*
X2252618Y41156666D01*
X2254618Y41156680D01*
X2255629Y41154954D01*
X2255044Y41153528D01*
X2239615Y41138073D01*
X2228910Y41116171D01*
X2225800Y41094855D01*
X2225800Y39935147D01*
X2228948Y39913701D01*
X2239690Y39891822D01*
X2255098Y39876440D01*
X2255617Y39874509D01*
X2254204Y39873094D01*
X2252663Y39873306D01*
X2252520Y39873391D01*
X2252128Y39873696D01*
X2234646Y39891178D01*
X2218661Y39901859D01*
X2200000Y39905571D01*
X2181339Y39901859D01*
X2165354Y39891178D01*
X2147872Y39873696D01*
X2147469Y39873385D01*
X2147382Y39873334D01*
X2145382Y39873320D01*
X2144371Y39875046D01*
X2144956Y39876472D01*
X2160385Y39891927D01*
X2171090Y39913829D01*
X2174200Y39935145D01*
X2174200Y41094853D01*
X2171052Y41116299D01*
X2160310Y41138178D01*
X2144902Y41153560D01*
X2144383Y41155491D01*
X2145796Y41156906D01*
X2147337Y41156694D01*
G37*
G36*
X2647337Y41156694D02*
G01*
X2647480Y41156609D01*
X2647872Y41156304D01*
X2665354Y41138822D01*
X2681339Y41128141D01*
X2700000Y41124429D01*
X2718661Y41128141D01*
X2734646Y41138822D01*
X2752128Y41156304D01*
X2752531Y41156615D01*
X2752618Y41156666D01*
X2754618Y41156680D01*
X2755629Y41154954D01*
X2755044Y41153528D01*
X2739615Y41138073D01*
X2728910Y41116171D01*
X2725800Y41094855D01*
X2725800Y39935147D01*
X2728948Y39913701D01*
X2739690Y39891822D01*
X2755098Y39876440D01*
X2755617Y39874509D01*
X2754204Y39873094D01*
X2752663Y39873306D01*
X2752520Y39873391D01*
X2752128Y39873696D01*
X2734646Y39891178D01*
X2718661Y39901859D01*
X2700000Y39905571D01*
X2681339Y39901859D01*
X2665354Y39891178D01*
X2647872Y39873696D01*
X2647469Y39873385D01*
X2647382Y39873334D01*
X2645382Y39873320D01*
X2644371Y39875046D01*
X2644956Y39876472D01*
X2660385Y39891927D01*
X2671090Y39913829D01*
X2674200Y39935145D01*
X2674200Y41094853D01*
X2671052Y41116299D01*
X2660310Y41138178D01*
X2644902Y41153560D01*
X2644383Y41155491D01*
X2645796Y41156906D01*
X2647337Y41156694D01*
G37*
G36*
X-352663Y41156694D02*
G01*
X-352520Y41156609D01*
X-352128Y41156304D01*
X-334646Y41138822D01*
X-318661Y41128141D01*
X-300000Y41124429D01*
X-281339Y41128141D01*
X-265354Y41138822D01*
X-247872Y41156304D01*
X-247469Y41156615D01*
X-247382Y41156666D01*
X-245382Y41156680D01*
X-244371Y41154954D01*
X-244956Y41153528D01*
X-260385Y41138073D01*
X-271090Y41116171D01*
X-274200Y41094855D01*
X-274200Y39935147D01*
X-271052Y39913701D01*
X-260310Y39891822D01*
X-244902Y39876440D01*
X-244383Y39874509D01*
X-245796Y39873094D01*
X-247337Y39873306D01*
X-247480Y39873391D01*
X-247872Y39873696D01*
X-265354Y39891178D01*
X-281339Y39901859D01*
X-300000Y39905571D01*
X-318661Y39901859D01*
X-334646Y39891178D01*
X-352128Y39873696D01*
X-352531Y39873385D01*
X-352618Y39873334D01*
X-354618Y39873320D01*
X-355629Y39875046D01*
X-355044Y39876472D01*
X-339615Y39891927D01*
X-328910Y39913829D01*
X-325800Y39935145D01*
X-325800Y41094853D01*
X-328948Y41116299D01*
X-339690Y41138178D01*
X-355098Y41153560D01*
X-355617Y41155491D01*
X-354204Y41156906D01*
X-352663Y41156694D01*
G37*
G36*
X147337Y41156694D02*
G01*
X147480Y41156609D01*
X147872Y41156304D01*
X165354Y41138822D01*
X181339Y41128141D01*
X200000Y41124429D01*
X218661Y41128141D01*
X234646Y41138822D01*
X252128Y41156304D01*
X252531Y41156615D01*
X252618Y41156666D01*
X254618Y41156680D01*
X255629Y41154954D01*
X255044Y41153528D01*
X239615Y41138073D01*
X228910Y41116171D01*
X225800Y41094855D01*
X225800Y39935147D01*
X228948Y39913701D01*
X239690Y39891822D01*
X255098Y39876440D01*
X255617Y39874509D01*
X254204Y39873094D01*
X252663Y39873306D01*
X252520Y39873391D01*
X252128Y39873696D01*
X234646Y39891178D01*
X218661Y39901859D01*
X200000Y39905571D01*
X181339Y39901859D01*
X165354Y39891178D01*
X147872Y39873696D01*
X147469Y39873385D01*
X147382Y39873334D01*
X145382Y39873320D01*
X144371Y39875046D01*
X144956Y39876472D01*
X160385Y39891927D01*
X171090Y39913829D01*
X174200Y39935145D01*
X174200Y41094853D01*
X171052Y41116299D01*
X160310Y41138178D01*
X144902Y41153560D01*
X144383Y41155491D01*
X145796Y41156906D01*
X147337Y41156694D01*
G37*
G36*
X-1968206Y41270673D02*
G01*
X-1968968Y41268968D01*
X-1979743Y41260520D01*
X-1992267Y41245934D01*
X-1998193Y41227857D01*
X-1996750Y41208885D01*
X-1988157Y41191912D01*
X-1973722Y41179517D01*
X-1955511Y41173547D01*
X-1949683Y41173196D01*
X-1948014Y41172094D01*
X-1948134Y41170098D01*
X-1949803Y41169200D01*
X-1999853Y41169200D01*
X-2021299Y41166052D01*
X-2043178Y41155310D01*
X-2060385Y41138074D01*
X-2071090Y41116171D01*
X-2074200Y41094855D01*
X-2074200Y39935147D01*
X-2071052Y39913701D01*
X-2060310Y39891822D01*
X-2044902Y39876440D01*
X-2044383Y39874509D01*
X-2045796Y39873094D01*
X-2047337Y39873306D01*
X-2047480Y39873391D01*
X-2047872Y39873696D01*
X-2065354Y39891178D01*
X-2081339Y39901859D01*
X-2100000Y39905571D01*
X-2118661Y39901859D01*
X-2134646Y39891178D01*
X-2152128Y39873696D01*
X-2152531Y39873385D01*
X-2152618Y39873334D01*
X-2154618Y39873320D01*
X-2155629Y39875046D01*
X-2155044Y39876472D01*
X-2139615Y39891927D01*
X-2128910Y39913829D01*
X-2125800Y39935145D01*
X-2125800Y41094853D01*
X-2128948Y41116299D01*
X-2139690Y41138178D01*
X-2156926Y41155385D01*
X-2178829Y41166090D01*
X-2200145Y41169200D01*
X-2428945Y41169200D01*
X-2430677Y41170200D01*
X-2430677Y41172200D01*
X-2429335Y41173162D01*
X-2410284Y41176952D01*
X-2394467Y41187521D01*
X-2383898Y41203338D01*
X-2380186Y41221999D01*
X-2383898Y41240660D01*
X-2394515Y41256550D01*
X-2400895Y41261633D01*
X-2401627Y41263494D01*
X-2400380Y41265058D01*
X-2398617Y41264910D01*
X-2359884Y41241591D01*
X-2311206Y41220979D01*
X-2260117Y41207433D01*
X-2207624Y41201220D01*
X-2154788Y41202466D01*
X-2102646Y41211144D01*
X-2052251Y41227082D01*
X-2004600Y41249963D01*
X-1971313Y41272205D01*
X-1969317Y41272336D01*
X-1968206Y41270673D01*
G37*
G36*
X1647337Y41156694D02*
G01*
X1647480Y41156609D01*
X1647872Y41156304D01*
X1665354Y41138822D01*
X1681339Y41128141D01*
X1700000Y41124429D01*
X1718661Y41128141D01*
X1734646Y41138822D01*
X1752128Y41156304D01*
X1752531Y41156615D01*
X1752618Y41156666D01*
X1754618Y41156680D01*
X1755629Y41154954D01*
X1755044Y41153528D01*
X1739615Y41138073D01*
X1728910Y41116171D01*
X1725800Y41094855D01*
X1725800Y39935147D01*
X1728948Y39913701D01*
X1739690Y39891822D01*
X1755098Y39876440D01*
X1755617Y39874509D01*
X1754204Y39873094D01*
X1752663Y39873306D01*
X1752520Y39873391D01*
X1752128Y39873696D01*
X1734646Y39891178D01*
X1718661Y39901859D01*
X1700000Y39905571D01*
X1681339Y39901859D01*
X1665354Y39891178D01*
X1647872Y39873696D01*
X1647469Y39873385D01*
X1647382Y39873334D01*
X1645382Y39873320D01*
X1644371Y39875046D01*
X1644956Y39876472D01*
X1660385Y39891927D01*
X1671090Y39913829D01*
X1674200Y39935145D01*
X1674200Y41094853D01*
X1671052Y41116299D01*
X1660310Y41138178D01*
X1644902Y41153560D01*
X1644383Y41155491D01*
X1645796Y41156906D01*
X1647337Y41156694D01*
G37*
G36*
X-1352663Y41156694D02*
G01*
X-1352520Y41156609D01*
X-1352128Y41156304D01*
X-1334646Y41138822D01*
X-1318661Y41128141D01*
X-1300000Y41124429D01*
X-1281339Y41128141D01*
X-1265354Y41138822D01*
X-1247872Y41156304D01*
X-1247469Y41156615D01*
X-1247382Y41156666D01*
X-1245382Y41156680D01*
X-1244371Y41154954D01*
X-1244956Y41153528D01*
X-1260385Y41138073D01*
X-1271090Y41116171D01*
X-1274200Y41094855D01*
X-1274200Y39935147D01*
X-1271052Y39913701D01*
X-1260310Y39891822D01*
X-1244902Y39876440D01*
X-1244383Y39874509D01*
X-1245796Y39873094D01*
X-1247337Y39873306D01*
X-1247480Y39873391D01*
X-1247872Y39873696D01*
X-1265354Y39891178D01*
X-1281339Y39901859D01*
X-1300000Y39905571D01*
X-1318661Y39901859D01*
X-1334646Y39891178D01*
X-1352128Y39873696D01*
X-1352531Y39873385D01*
X-1352618Y39873334D01*
X-1354618Y39873320D01*
X-1355629Y39875046D01*
X-1355044Y39876472D01*
X-1339615Y39891927D01*
X-1328910Y39913829D01*
X-1325800Y39935145D01*
X-1325800Y41094853D01*
X-1328948Y41116299D01*
X-1339690Y41138178D01*
X-1355098Y41153560D01*
X-1355617Y41155491D01*
X-1354204Y41156906D01*
X-1352663Y41156694D01*
G37*
G36*
X-852663Y41156694D02*
G01*
X-852520Y41156609D01*
X-852128Y41156304D01*
X-834646Y41138822D01*
X-818661Y41128141D01*
X-800000Y41124429D01*
X-781339Y41128141D01*
X-765354Y41138822D01*
X-747872Y41156304D01*
X-747469Y41156615D01*
X-747382Y41156666D01*
X-745382Y41156680D01*
X-744371Y41154954D01*
X-744956Y41153528D01*
X-760385Y41138073D01*
X-771090Y41116171D01*
X-774200Y41094855D01*
X-774200Y39935147D01*
X-771052Y39913701D01*
X-760310Y39891822D01*
X-744902Y39876440D01*
X-744383Y39874509D01*
X-745796Y39873094D01*
X-747337Y39873306D01*
X-747480Y39873391D01*
X-747872Y39873696D01*
X-765354Y39891178D01*
X-781339Y39901859D01*
X-800000Y39905571D01*
X-818661Y39901859D01*
X-834646Y39891178D01*
X-852128Y39873696D01*
X-852531Y39873385D01*
X-852618Y39873334D01*
X-854618Y39873320D01*
X-855629Y39875046D01*
X-855044Y39876472D01*
X-839615Y39891927D01*
X-828910Y39913829D01*
X-825800Y39935145D01*
X-825800Y41094853D01*
X-828948Y41116299D01*
X-839690Y41138178D01*
X-855098Y41153560D01*
X-855617Y41155491D01*
X-854204Y41156906D01*
X-852663Y41156694D01*
G37*
M02*
