%TF.GenerationSoftware,KiCad,Pcbnew,(6.0.8)*%
%TF.CreationDate,2022-10-08T21:09:11+11:00*%
%TF.ProjectId,KEEBPAD-MK,4b454542-5041-4442-9d4d-4b2e6b696361,1.0.0*%
%TF.SameCoordinates,PX8f0d180PY8f0d180*%
%TF.FileFunction,Soldermask,Bot*%
%TF.FilePolarity,Negative*%
%FSLAX46Y46*%
G04 Gerber Fmt 4.6, Leading zero omitted, Abs format (unit mm)*
G04 Created by KiCad (PCBNEW (6.0.8)) date 2022-10-08 21:09:11*
%MOMM*%
%LPD*%
G01*
G04 APERTURE LIST*
G04 Aperture macros list*
%AMRoundRect*
0 Rectangle with rounded corners*
0 $1 Rounding radius*
0 $2 $3 $4 $5 $6 $7 $8 $9 X,Y pos of 4 corners*
0 Add a 4 corners polygon primitive as box body*
4,1,4,$2,$3,$4,$5,$6,$7,$8,$9,$2,$3,0*
0 Add four circle primitives for the rounded corners*
1,1,$1+$1,$2,$3*
1,1,$1+$1,$4,$5*
1,1,$1+$1,$6,$7*
1,1,$1+$1,$8,$9*
0 Add four rect primitives between the rounded corners*
20,1,$1+$1,$2,$3,$4,$5,0*
20,1,$1+$1,$4,$5,$6,$7,0*
20,1,$1+$1,$6,$7,$8,$9,0*
20,1,$1+$1,$8,$9,$2,$3,0*%
G04 Aperture macros list end*
%ADD10C,1.902400*%
%ADD11C,4.152400*%
%ADD12C,2.652400*%
%ADD13RoundRect,0.076200X-0.850000X0.850000X-0.850000X-0.850000X0.850000X-0.850000X0.850000X0.850000X0*%
%ADD14O,1.852400X1.852400*%
%ADD15C,5.852400*%
%ADD16C,0.752400*%
%ADD17O,1.052400X1.852400*%
%ADD18O,1.052400X2.152400*%
G04 APERTURE END LIST*
D10*
%TO.C,SW4*%
X48680000Y-20585126D03*
D11*
X43600000Y-20585126D03*
D10*
X38520000Y-20585126D03*
D12*
X39790000Y-18045126D03*
X46140000Y-15505126D03*
%TD*%
D13*
%TO.C,B1*%
X23099999Y37125000D03*
D14*
X23099999Y34585000D03*
X20559999Y37125000D03*
X20559999Y34585000D03*
X18019999Y37125000D03*
X18019999Y34585000D03*
X15479999Y37125000D03*
X15479999Y34585000D03*
X12939999Y37125000D03*
X12939999Y34585000D03*
X10399999Y37125000D03*
X10399999Y34585000D03*
X7859999Y37125000D03*
X7859999Y34585000D03*
X5319999Y37125000D03*
X5319999Y34585000D03*
X2779999Y37125000D03*
X2779999Y34585000D03*
X239999Y37125000D03*
X239999Y34585000D03*
X-2300001Y37125000D03*
X-2300001Y34585000D03*
X-4840001Y37125000D03*
X-4840001Y34585000D03*
X-7380001Y37125000D03*
X-7380001Y34585000D03*
X-9920001Y37125000D03*
X-9920001Y34585000D03*
X-12460001Y37125000D03*
X-12460001Y34585000D03*
X-15000001Y37125000D03*
X-15000001Y34585000D03*
X-17540001Y37125000D03*
X-17540001Y34585000D03*
X-20080001Y37125000D03*
X-20080001Y34585000D03*
X-22620001Y37125000D03*
X-22620001Y34585000D03*
X-25160001Y37125000D03*
X-25160001Y34585000D03*
%TD*%
D11*
%TO.C,SW6*%
X24540000Y-1570000D03*
D10*
X19460000Y-1570000D03*
X29620000Y-1570000D03*
D12*
X20730000Y970000D03*
X27080000Y3510000D03*
%TD*%
D10*
%TO.C,SW1*%
X-47200251Y-1554749D03*
X-37040251Y-1554749D03*
D11*
X-42120251Y-1554749D03*
D12*
X-45930251Y985251D03*
X-39580251Y3525251D03*
%TD*%
D10*
%TO.C,SW5*%
X-28180000Y-20600000D03*
X-18020000Y-20600000D03*
D11*
X-23100000Y-20600000D03*
D12*
X-26910000Y-18060000D03*
X-20560000Y-15520000D03*
%TD*%
D11*
%TO.C,SW8*%
X24514875Y-20600000D03*
D10*
X29594875Y-20600000D03*
X19434875Y-20600000D03*
D12*
X20704875Y-18060000D03*
X27054875Y-15520000D03*
%TD*%
D10*
%TO.C,SW7*%
X-47205000Y-20604749D03*
D11*
X-42125000Y-20604749D03*
D10*
X-37045000Y-20604749D03*
D12*
X-45935000Y-18064749D03*
X-39585000Y-15524749D03*
%TD*%
D15*
%TO.C,H1*%
X-9000000Y-20000000D03*
%TD*%
D11*
%TO.C,SW2*%
X5500000Y-20600000D03*
D10*
X10580000Y-20600000D03*
X420000Y-20600000D03*
D12*
X1690000Y-18060000D03*
X8040000Y-15520000D03*
%TD*%
D15*
%TO.C,H2*%
X45000000Y-1000000D03*
%TD*%
D10*
%TO.C,SW3*%
X-18020000Y-1554749D03*
X-28180000Y-1554749D03*
D11*
X-23100000Y-1554749D03*
D12*
X-26910000Y985251D03*
X-20560000Y3525251D03*
%TD*%
D15*
%TO.C,H3*%
X0Y0D03*
%TD*%
D16*
%TO.C,J2*%
X-2190000Y41575000D03*
X3590000Y41575000D03*
D17*
X5020000Y45265000D03*
D18*
X5020000Y41095000D03*
D17*
X-3620000Y45265000D03*
D18*
X-3620000Y41095000D03*
%TD*%
M02*
